<svg width="489" height="499" viewBox="0 0 489 499" fill="none" xmlns="http://www.w3.org/2000/svg">
<path fill-rule="evenodd" clip-rule="evenodd" d="M10.751 3.2C7.603 4.934 5.021 6.587 5.014 6.872C5.006 7.158 7.587 8.814 10.75 10.552L16.5 13.713L22.285 10.434C28.629 6.838 28.656 6.998 20.988 2.622L16.475 0.0470009L10.751 3.2ZM110.47 1.108C109.387 1.703 106.753 3.282 104.618 4.617L100.736 7.045L106.592 10.364L112.448 13.683L118.18 10.518C124.543 7.004 124.525 6.888 116.97 2.599C113.352 0.544999 112.044 0.245002 110.47 1.108ZM156.948 2.08C147.751 7.629 148.029 6.644 154.603 10.37L160.448 13.683L166.18 10.518C172.546 7.003 172.528 6.89 164.948 2.585L160.395 0L156.948 2.08ZM252.948 2.08C243.751 7.629 244.029 6.644 250.603 10.37L256.448 13.683L262.18 10.518C268.546 7.003 268.528 6.89 260.948 2.585L256.395 0L252.948 2.08ZM300.948 2.08C291.751 7.629 292.029 6.644 298.603 10.37L304.448 13.683L310.18 10.518C316.546 7.003 316.528 6.89 308.948 2.585L304.395 0L300.948 2.08ZM348.948 2.08C339.751 7.629 340.029 6.644 346.603 10.37L352.448 13.683L358.18 10.518C364.546 7.003 364.528 6.89 356.948 2.585L352.395 0L348.948 2.08ZM396.948 2.08C387.751 7.629 388.029 6.644 394.603 10.37L400.448 13.683L406.18 10.518C412.546 7.003 412.528 6.89 404.948 2.585L400.395 0L396.948 2.08ZM29.25 24.958L24 28.018V34.436C24 37.965 24.337 40.849 24.75 40.844C25.163 40.838 27.862 39.479 30.75 37.823L36 34.813V28.333C36 24.769 35.662 21.863 35.25 21.875C34.838 21.887 32.138 23.274 29.25 24.958ZM77.754 24.632L73.008 27.353L73.004 34.2L73 41.046L78.25 38.084L83.5 35.123L83.796 28.488C83.958 24.839 83.733 21.866 83.296 21.882C82.858 21.897 80.364 23.135 77.754 24.632ZM125.754 24.632L121.008 27.353L121.004 34.2L121 41.046L126.25 38.084L131.5 35.123L131.796 28.488C131.958 24.839 131.733 21.866 131.296 21.882C130.858 21.897 128.364 23.135 125.754 24.632ZM173.754 24.632L169.008 27.353L169.004 34.2L169 41.046L174.25 38.084L179.5 35.123L179.796 28.488C179.958 24.839 179.733 21.866 179.296 21.882C178.858 21.897 176.364 23.135 173.754 24.632ZM221.754 24.632L217.008 27.353L217.004 34.2L217 41.046L222.25 38.084L227.5 35.123L227.796 28.488C227.958 24.839 227.733 21.866 227.296 21.882C226.858 21.897 224.364 23.135 221.754 24.632ZM237.204 28.488L237.5 35.123L242.75 38.084L248 41.046L247.999 34.2L247.998 27.353L243.102 24.603C240.409 23.09 237.914 21.853 237.557 21.853C237.2 21.853 237.042 24.839 237.204 28.488ZM285.204 28.488L285.5 35.123L290.75 38.084L296 41.046L295.999 34.2L295.998 27.353L291.102 24.603C288.409 23.09 285.914 21.853 285.557 21.853C285.2 21.853 285.042 24.839 285.204 28.488ZM317.754 24.632L313.008 27.353L313.004 34.2L313 41.046L318.25 38.084L323.5 35.123L323.796 28.488C323.958 24.839 323.733 21.866 323.296 21.882C322.858 21.897 320.364 23.135 317.754 24.632ZM333.204 28.488L333.5 35.123L338.75 38.084L344 41.046L343.999 34.2L343.998 27.353L339.102 24.603C336.409 23.09 333.914 21.853 333.557 21.853C333.2 21.853 333.042 24.839 333.204 28.488ZM365.754 24.632L361.008 27.353L361.004 34.2L361 41.046L366.25 38.084L371.5 35.123L371.796 28.488C371.958 24.839 371.733 21.866 371.296 21.882C370.858 21.897 368.364 23.135 365.754 24.632ZM381.204 28.488L381.5 35.123L386.75 38.084L392 41.046L391.999 34.2L391.998 27.353L387.102 24.603C384.409 23.09 381.914 21.853 381.557 21.853C381.2 21.853 381.042 24.839 381.204 28.488ZM413.764 24.664L409.029 27.353L409.014 34.103C409.006 37.816 409.218 40.853 409.485 40.853C409.752 40.853 412.227 39.464 414.985 37.767L420 34.681V28.267C420 24.739 419.663 21.88 419.25 21.914C418.837 21.947 416.369 23.184 413.764 24.664ZM429.204 28.488L429.5 35.123L434.75 38.084L440 41.046L439.999 34.2L439.998 27.353L435.102 24.603C432.409 23.09 429.914 21.853 429.557 21.853C429.2 21.853 429.042 24.839 429.204 28.488ZM461.764 24.664L457.029 27.353L457.014 34.103C457.006 37.816 457.218 40.853 457.485 40.853C457.752 40.853 460.227 39.464 462.985 37.767L468 34.681V28.267C468 24.739 467.663 21.88 467.25 21.914C466.837 21.947 464.369 23.184 461.764 24.664ZM34.137 45.237L28.774 48.577L34.555 51.884L40.336 55.192L45.756 52.272C48.737 50.667 51.338 49.097 51.536 48.784C51.897 48.211 41.394 41.833 40.16 41.876C39.797 41.888 37.087 43.401 34.137 45.237ZM85.5 43.254C84.4 43.966 81.991 45.458 80.146 46.568L76.792 48.587L82.564 51.89L88.336 55.192L93.756 52.272C96.737 50.667 99.338 49.097 99.536 48.784C99.905 48.198 89.343 41.811 88.16 41.905C87.797 41.934 86.6 42.541 85.5 43.254ZM133.5 43.254C132.4 43.966 129.991 45.458 128.146 46.568L124.792 48.587L130.564 51.89L136.336 55.192L141.756 52.272C144.737 50.667 147.338 49.097 147.536 48.784C147.905 48.198 137.343 41.811 136.16 41.905C135.797 41.934 134.6 42.541 133.5 43.254ZM181.5 43.254C180.4 43.966 177.991 45.458 176.146 46.568L172.792 48.587L178.564 51.89L184.336 55.192L189.756 52.272C192.737 50.667 195.338 49.097 195.536 48.784C195.905 48.198 185.343 41.811 184.16 41.905C183.797 41.934 182.6 42.541 181.5 43.254ZM277.5 43.254C276.4 43.966 273.991 45.458 272.146 46.568L268.792 48.587L274.564 51.89L280.336 55.192L285.756 52.272C288.737 50.667 291.338 49.097 291.536 48.784C291.905 48.198 281.343 41.811 280.16 41.905C279.797 41.934 278.6 42.541 277.5 43.254ZM325.5 43.254C324.4 43.966 321.991 45.458 320.146 46.568L316.792 48.587L322.564 51.89L328.336 55.192L333.756 52.272C336.737 50.667 339.338 49.097 339.536 48.784C339.905 48.198 329.343 41.811 328.16 41.905C327.797 41.934 326.6 42.541 325.5 43.254ZM373.5 43.254C372.4 43.966 369.991 45.458 368.146 46.568L364.792 48.587L370.564 51.89L376.336 55.192L381.756 52.272C384.737 50.667 387.338 49.097 387.536 48.784C387.905 48.198 377.343 41.811 376.16 41.905C375.797 41.934 374.6 42.541 373.5 43.254ZM469.5 43.254C468.4 43.966 465.991 45.458 464.146 46.568L460.792 48.587L466.564 51.89L472.336 55.192L477.756 52.272C480.737 50.667 483.338 49.097 483.536 48.784C483.905 48.198 473.343 41.811 472.16 41.905C471.797 41.934 470.6 42.541 469.5 43.254ZM6 66.165L0.5 69.469L0.202 76.26C0.0379997 79.996 0.268002 82.894 0.712002 82.702C1.157 82.51 3.878 81.044 6.76 79.444L12 76.535V69.694C12 65.931 11.888 62.855 11.75 62.857C11.612 62.859 9.025 64.348 6 66.165ZM20 69.231C20 76.153 19.923 76.036 27.25 80.223L32 82.937V75.991V69.044L26.515 65.948C23.498 64.246 20.798 62.853 20.515 62.853C20.232 62.853 20 65.723 20 69.231ZM54.25 65.958L49 69.018V75.884V82.75L54.5 79.591L60 76.432V69.642C60 65.908 59.888 62.863 59.75 62.875C59.612 62.887 57.138 64.274 54.25 65.958ZM165 69.592C165 74.983 165.359 76.587 166.75 77.42C167.713 77.997 170.208 79.505 172.296 80.771L176.092 83.073L175.796 75.937L175.5 68.801L170.25 65.807L165 62.813V69.592ZM213 69.592C213 74.983 213.359 76.587 214.75 77.42C215.713 77.997 218.208 79.505 220.296 80.771L224.092 83.073L223.796 75.937L223.5 68.801L218.25 65.807L213 62.813V69.592ZM246.25 65.958L241 69.018V75.884V82.75L246.5 79.591L252 76.432V69.642C252 65.908 251.887 62.863 251.75 62.875C251.613 62.887 249.137 64.274 246.25 65.958ZM261 69.622V76.432L266.543 79.615L272.087 82.799L271.793 75.8L271.5 68.801L266.25 65.807L261 62.813V69.622ZM309 69.56V76.432L314.543 79.615L320.087 82.799L319.793 75.771L319.5 68.742L314.25 65.715L309 62.688V69.56ZM357 69.56V76.432L362.543 79.615L368.087 82.799L367.793 75.771L367.5 68.742L362.25 65.715L357 62.688V69.56ZM390.25 66.075L385 69.046V76.006V82.966L389.25 80.375C391.587 78.949 394.085 77.431 394.8 77C395.708 76.454 396.009 74.241 395.8 69.661L395.5 63.105L390.25 66.075ZM405 69.56V76.432L410.543 79.615L416.087 82.799L415.793 75.771L415.5 68.742L410.25 65.715L405 62.688V69.56ZM438.25 66.006L433 69.046V75.898V82.75L438.5 79.591L444 76.432V69.642C444 65.908 443.887 62.878 443.75 62.909C443.613 62.94 441.137 64.334 438.25 66.006ZM453 69.56V76.432L458.543 79.615L464.087 82.799L463.793 75.771L463.5 68.742L458.25 65.715L453 62.688V69.56ZM10.701 86.297C4.581 89.929 4.576 90.188 10.578 93.635C16.681 97.141 16.511 97.161 25.24 91.853L28.239 90.03L22.869 86.951C16.589 83.35 15.742 83.304 10.701 86.297ZM58.134 86.949L52.767 90.026L58.434 93.44C64.661 97.191 64.421 97.216 73.24 91.853L76.239 90.03L70.869 86.951C67.916 85.257 65.05 83.872 64.5 83.872C63.95 83.872 61.085 85.257 58.134 86.949ZM106.134 86.949L100.767 90.026L106.434 93.44C112.661 97.191 112.421 97.216 121.24 91.853L124.239 90.03L118.869 86.951C115.916 85.257 113.05 83.872 112.5 83.872C111.95 83.872 109.085 85.257 106.134 86.949ZM250.131 86.951L244.761 90.03L247.76 91.853C256.321 97.059 256.079 97.034 262.487 93.401L268.337 90.086L262.919 86.979C259.938 85.27 257.05 83.872 256.5 83.872C255.95 83.872 253.084 85.257 250.131 86.951ZM298.131 86.951L292.761 90.03L295.76 91.853C304.579 97.216 304.339 97.191 310.566 93.44L316.233 90.026L310.866 86.949C307.915 85.257 305.05 83.872 304.5 83.872C303.95 83.872 301.084 85.257 298.131 86.951ZM394.131 86.951L388.761 90.03L391.76 91.853C400.579 97.216 400.339 97.191 406.566 93.44L412.233 90.026L406.866 86.949C403.915 85.257 401.05 83.872 400.5 83.872C399.95 83.872 397.084 85.257 394.131 86.951ZM442.131 86.951L436.761 90.03L439.76 91.853C448.505 97.171 448.394 97.157 454.203 93.748C457.117 92.039 459.654 90.497 459.843 90.32C460.314 89.881 449.744 83.872 448.5 83.872C447.95 83.872 445.084 85.257 442.131 86.951ZM29.25 108.006L24 111.046V117.45C24 124.813 24.362 124.994 31 120.963L35.5 118.23L35.796 111.541C35.958 107.863 35.733 104.878 35.296 104.909C34.858 104.94 32.138 106.334 29.25 108.006ZM45 111.34V117.828L49.076 120.401C56.201 124.899 56.133 124.93 55.799 117.29L55.5 110.476L51 107.743C48.525 106.24 46.162 104.975 45.75 104.932C45.338 104.888 45 107.772 45 111.34ZM77.75 107.874L73 110.857V117.355C73 120.929 73.338 123.818 73.75 123.774C74.162 123.731 76.525 122.466 79 120.963L83.5 118.23L83.796 111.541C83.958 107.863 83.733 104.862 83.296 104.872C82.858 104.882 80.362 106.233 77.75 107.874ZM125.75 107.874L121 110.857V117.355C121 120.929 121.338 123.818 121.75 123.774C122.162 123.731 124.525 122.466 127 120.963L131.5 118.23L131.796 111.541C131.958 107.863 131.733 104.862 131.296 104.872C130.858 104.882 128.363 106.233 125.75 107.874ZM173.75 107.874L169 110.857V117.355C169 120.929 169.338 123.818 169.75 123.774C170.162 123.731 172.525 122.466 175 120.963L179.5 118.23L179.796 111.541C179.958 107.863 179.733 104.862 179.296 104.872C178.858 104.882 176.363 106.233 173.75 107.874ZM189 111.34V117.828L193.076 120.401C200.201 124.899 200.133 124.93 199.799 117.29L199.5 110.476L195 107.743C192.525 106.24 190.162 104.975 189.75 104.932C189.338 104.888 189 107.772 189 111.34ZM237.201 111.416L237.5 118.23L242 120.963C244.475 122.466 246.837 123.731 247.25 123.774C247.663 123.818 248 120.934 248 117.366V110.878L243.924 108.305C236.799 103.807 236.867 103.776 237.201 111.416ZM285.204 111.541L285.5 118.23L290 120.963C292.475 122.466 294.858 123.731 295.296 123.774C295.733 123.818 295.958 120.843 295.796 117.165L295.5 110.476L291 107.743C288.525 106.24 286.142 104.975 285.704 104.932C285.267 104.888 285.042 107.863 285.204 111.541ZM317.75 107.874L313 110.857V117.355C313 120.929 313.337 123.818 313.75 123.774C314.163 123.731 316.525 122.466 319 120.963L323.5 118.23L323.796 111.541C323.958 107.863 323.733 104.862 323.296 104.872C322.858 104.882 320.363 106.233 317.75 107.874ZM381.201 111.416L381.5 118.23L386 120.963C388.475 122.466 390.837 123.731 391.25 123.774C391.663 123.818 392 120.934 392 117.366V110.878L387.924 108.305C380.799 103.807 380.867 103.776 381.201 111.416ZM414 107.743L409.5 110.476L409.201 117.29C408.867 124.93 408.799 124.899 415.924 120.401L420 117.828V111.34C420 107.772 419.663 104.888 419.25 104.932C418.837 104.975 416.475 106.24 414 107.743ZM429.204 111.541L429.5 118.23L434 120.963C436.475 122.466 438.837 123.731 439.25 123.774C439.663 123.818 439.994 120.816 439.986 117.103L439.971 110.353L434.985 107.603C432.243 106.091 429.754 104.853 429.454 104.853C429.154 104.853 429.042 107.863 429.204 111.541ZM462 107.743L457.5 110.476L457.201 117.29C456.867 124.93 456.799 124.899 463.924 120.401L468 117.828V111.34C468 107.772 467.663 104.888 467.25 104.932C466.837 104.975 464.475 106.24 462 107.743ZM477.201 111.416L477.5 118.23L482 120.963C484.475 122.466 486.837 123.731 487.25 123.774C487.663 123.818 488 120.934 488 117.366V110.878L483.924 108.305C476.799 103.807 476.867 103.776 477.201 111.416ZM34.559 128.278L28.691 131.604L31.095 133.075C32.418 133.884 35.026 135.466 36.891 136.59L40.283 138.634L45.391 135.651C48.201 134.01 50.829 132.358 51.23 131.98C51.632 131.602 49.365 129.866 46.194 128.123L40.427 124.952L34.559 128.278ZM82.602 128.254L76.777 131.556L82.547 135.085L88.317 138.614L93.409 135.641C96.209 134.006 98.829 132.358 99.23 131.98C99.632 131.602 97.365 129.866 94.194 128.123L88.427 124.952L82.602 128.254ZM130.602 128.254L124.777 131.556L130.547 135.085L136.317 138.614L141.409 135.641C144.209 134.006 146.829 132.358 147.23 131.98C147.632 131.602 145.365 129.866 142.194 128.123L136.427 124.952L130.602 128.254ZM226.602 128.254L220.777 131.556L226.614 135.126L232.452 138.697L236.061 136.525C244.958 131.172 244.808 131.738 238.266 128.153L232.427 124.952L226.602 128.254ZM274.568 128.273L268.709 131.594L274.605 135.085L280.5 138.575L284.085 136.464C292.93 131.256 292.804 131.736 286.266 128.153L280.427 124.952L274.568 128.273ZM322.602 128.254L316.777 131.556L322.614 135.126L328.452 138.697L332.061 136.525C340.958 131.172 340.808 131.738 334.266 128.153L328.427 124.952L322.602 128.254ZM370.568 128.273L364.709 131.594L370.605 135.085L376.5 138.575L380.085 136.464C388.93 131.256 388.804 131.736 382.266 128.153L376.427 124.952L370.568 128.273ZM466.568 128.273L460.709 131.594L466.605 135.079L472.5 138.564L477 136.05C484.602 131.802 484.624 131.658 478.203 128.128L472.427 124.952L466.568 128.273ZM6 149.208L0.5 152.485L0.203999 159.169C0.0419986 162.845 0.212 165.853 0.583 165.853C0.953 165.853 3.674 164.47 6.628 162.78L12 159.706V152.78C12 148.97 11.888 145.871 11.75 145.892C11.612 145.913 9.025 147.406 6 149.208ZM20 152.257C20 158.765 20.036 158.851 23.75 161.183C32.486 166.669 32 166.795 32 159.047V152.171L26.76 149.262C23.878 147.662 21.178 146.203 20.76 146.02C20.342 145.836 20 148.643 20 152.257ZM54.25 149.169L49 152.335V159.136V165.937L53.75 163.231C60.36 159.464 60.131 159.868 59.799 152.579L59.5 146.003L54.25 149.169ZM69.207 152.935L69.5 159.964L74.75 162.991L80 166.018V159.146V152.274L74.457 149.091L68.913 145.907L69.207 152.935ZM102.25 149.169L97 152.335V159.136V165.937L101.75 163.231C108.36 159.464 108.131 159.868 107.799 152.579L107.5 146.003L102.25 149.169ZM117.207 152.935L117.5 159.964L122.75 162.991L128 166.018V159.146V152.274L122.457 149.091L116.913 145.907L117.207 152.935ZM165.207 152.935L165.5 159.964L170.75 162.991L176 166.018V159.146V152.274L170.457 149.091L164.913 145.907L165.207 152.935ZM198.25 149.169L193 152.335V159.136V165.937L197.75 163.231C204.36 159.464 204.131 159.868 203.799 152.579L203.5 146.003L198.25 149.169ZM246.25 149.169L241 152.335V159.136V165.937L245.75 163.231C252.36 159.464 252.131 159.868 251.799 152.579L251.5 146.003L246.25 149.169ZM294.25 149.26L289 152.261V159.152V166.043L293.75 163.315C300.329 159.537 300.132 159.882 299.799 152.707L299.5 146.259L294.25 149.26ZM309.207 152.935L309.5 159.964L314.75 162.991L320 166.018V159.146V152.274L314.457 149.091L308.913 145.907L309.207 152.935ZM342.25 149.26L337 152.261V159.152V166.043L341.75 163.315C348.329 159.537 348.132 159.882 347.799 152.707L347.5 146.259L342.25 149.26ZM357.204 152.769L357.5 159.905L362.75 162.899L368 165.893V159.114C368 153.723 367.641 152.119 366.25 151.286C365.288 150.709 362.792 149.201 360.704 147.935L356.908 145.633L357.204 152.769ZM390.25 149.26L385 152.261V159.152V166.043L389.75 163.315C396.329 159.537 396.132 159.882 395.799 152.707L395.5 146.259L390.25 149.26ZM405.204 152.769L405.5 159.905L410.75 162.899L416 165.893V159.114C416 153.723 415.641 152.119 414.25 151.286C413.288 150.709 410.792 149.201 408.704 147.935L404.908 145.633L405.204 152.769ZM438.25 149.26L433 152.261V159.152V166.043L437.75 163.315C444.329 159.537 444.132 159.882 443.799 152.707L443.5 146.259L438.25 149.26ZM453.204 152.769L453.5 159.905L458.75 162.899L464 165.893V159.114C464 153.723 463.641 152.119 462.25 151.286C461.288 150.709 458.792 149.201 456.704 147.935L452.908 145.633L453.204 152.769ZM10.25 169.958C7.362 171.641 5 173.163 5 173.34C5 173.517 7.545 175.098 10.656 176.854L16.312 180.046L20.406 177.785C28.824 173.137 28.74 173.423 22.693 169.963C19.703 168.253 16.861 166.863 16.378 166.875C15.895 166.887 13.138 168.274 10.25 169.958ZM58.25 169.958C55.362 171.641 53 173.163 53 173.34C53 173.517 55.545 175.098 58.656 176.854L64.312 180.046L68.406 177.785C76.79 173.156 76.71 173.445 70.563 169.975C67.52 168.258 64.686 166.863 64.265 166.875C63.844 166.887 61.138 168.274 58.25 169.958ZM154.25 169.958C151.363 171.641 149 173.163 149 173.34C149 173.841 159.875 179.856 160.735 179.83C161.156 179.818 163.913 178.305 166.863 176.469L172.226 173.129L166.741 169.991C163.725 168.265 160.861 166.863 160.378 166.875C159.895 166.887 157.137 168.274 154.25 169.958ZM298.145 170.018L292.79 173.139L298.145 176.474C301.09 178.307 303.95 179.808 304.5 179.808C305.05 179.808 307.913 178.305 310.863 176.469L316.226 173.129L310.741 169.991C307.725 168.265 304.861 166.863 304.378 166.875C303.895 166.887 301.09 168.302 298.145 170.018ZM346.145 170.018L340.79 173.139L346.145 176.474C349.09 178.307 351.95 179.808 352.5 179.808C353.05 179.808 355.913 178.305 358.863 176.469L364.226 173.129L358.741 169.991C355.725 168.265 352.861 166.863 352.378 166.875C351.895 166.887 349.09 168.302 346.145 170.018ZM394.145 170.018L388.79 173.139L394.145 176.474C397.09 178.307 399.844 179.818 400.265 179.83C401.135 179.856 412 173.838 412 173.331C412 172.782 401.324 166.851 400.378 166.875C399.895 166.887 397.09 168.302 394.145 170.018ZM442.193 169.991C436.288 173.432 436.202 173.151 444.594 177.785L448.688 180.046L454.344 176.854C457.455 175.098 460 173.513 460 173.331C460 172.782 449.324 166.851 448.378 166.875C447.895 166.887 445.112 168.289 442.193 169.991ZM30.894 190.197C24.341 194.115 24 194.648 24 200.975C24 204.225 24.447 206.853 24.999 206.853C25.549 206.853 28.243 205.615 30.985 204.103L35.971 201.353L35.986 194.603C35.994 190.89 35.662 187.895 35.25 187.947C34.838 187.999 32.877 189.012 30.894 190.197ZM45.001 194.506L45.002 201.353L49.898 204.103C52.591 205.615 55.086 206.853 55.443 206.853C55.8 206.853 55.958 203.867 55.796 200.218L55.5 193.583L50.25 190.622L45 187.66L45.001 194.506ZM77.75 191.007L73 194.022V200.438C73 203.966 73.225 206.853 73.499 206.853C73.774 206.853 76.243 205.615 78.985 204.103L83.971 201.353L83.986 194.603C83.994 190.89 83.662 187.884 83.25 187.923C82.838 187.961 80.362 189.349 77.75 191.007ZM93.001 194.506L93.002 201.353L97.898 204.103C100.591 205.615 103.086 206.853 103.443 206.853C103.8 206.853 103.958 203.867 103.796 200.218L103.5 193.583L98.25 190.622L93 187.66L93.001 194.506ZM126.25 190.883L121 193.893V200.373C121 203.937 121.225 206.853 121.499 206.853C121.774 206.853 124.243 205.615 126.985 204.103L131.971 201.353L131.986 194.603C131.994 190.89 131.887 187.857 131.75 187.862C131.613 187.868 129.137 189.227 126.25 190.883ZM189.001 194.506L189.002 201.353L193.898 204.103C196.591 205.615 199.086 206.853 199.443 206.853C199.8 206.853 199.958 203.867 199.796 200.218L199.5 193.583L194.25 190.622L189 187.66L189.001 194.506ZM237.001 194.506L237.002 201.353L241.898 204.103C244.591 205.615 247.086 206.853 247.443 206.853C247.8 206.853 247.958 203.867 247.796 200.218L247.5 193.583L242.25 190.622L237 187.66L237.001 194.506ZM270.25 190.883L265 193.893V200.373C265 203.937 265.271 206.853 265.603 206.853C265.934 206.853 268.409 205.615 271.102 204.103L275.998 201.353L275.999 194.603C276 190.89 275.887 187.857 275.75 187.862C275.613 187.868 273.137 189.227 270.25 190.883ZM285.001 194.506L285.002 201.353L289.898 204.103C292.591 205.615 295.086 206.853 295.443 206.853C295.8 206.853 295.958 203.867 295.796 200.218L295.5 193.583L290.25 190.622L285 187.66L285.001 194.506ZM318.25 190.883L313 193.893V200.373C313 203.937 313.271 206.853 313.603 206.853C313.934 206.853 316.409 205.615 319.102 204.103L323.998 201.353L323.999 194.603C324 190.89 323.887 187.857 323.75 187.862C323.613 187.868 321.137 189.227 318.25 190.883ZM333.001 194.506L333.002 201.353L337.898 204.103C340.591 205.615 343.086 206.853 343.443 206.853C343.8 206.853 343.958 203.867 343.796 200.218L343.5 193.583L338.25 190.622L333 187.66L333.001 194.506ZM366.25 190.883L361 193.893V200.373C361 203.937 361.271 206.853 361.603 206.853C361.934 206.853 364.409 205.615 367.102 204.103L371.998 201.353L371.999 194.603C372 190.89 371.887 187.857 371.75 187.862C371.613 187.868 369.137 189.227 366.25 190.883ZM381.014 194.603L381.029 201.353L386.015 204.103C388.757 205.615 391.226 206.853 391.501 206.853C391.775 206.853 392 203.967 392 200.439V194.025L386.985 190.939C384.227 189.242 381.752 187.853 381.485 187.853C381.218 187.853 381.006 190.89 381.014 194.603ZM414.25 190.883L409 193.893V200.373C409 203.937 409.271 206.853 409.603 206.853C409.934 206.853 412.409 205.615 415.102 204.103L419.998 201.353L419.999 194.603C420 190.89 419.887 187.857 419.75 187.862C419.613 187.868 417.137 189.227 414.25 190.883ZM429.014 194.603L429.029 201.353L434.015 204.103C436.757 205.615 439.226 206.853 439.501 206.853C439.775 206.853 440 203.967 440 200.439V194.025L434.985 190.939C432.227 189.242 429.752 187.853 429.485 187.853C429.218 187.853 429.006 190.89 429.014 194.603ZM462.25 190.883L457 193.893V200.373C457 203.937 457.271 206.853 457.603 206.853C457.934 206.853 460.409 205.615 463.102 204.103L467.998 201.353L467.999 194.603C468 190.89 467.887 187.857 467.75 187.862C467.613 187.868 465.137 189.227 462.25 190.883ZM477.014 194.603L477.029 201.353L482.015 204.103C484.757 205.615 487.226 206.853 487.501 206.853C487.775 206.853 488 203.967 488 200.439V194.025L482.985 190.939C480.227 189.242 477.752 187.853 477.485 187.853C477.218 187.853 477.006 190.89 477.014 194.603ZM34.735 211.209C31.596 212.938 29.026 214.578 29.025 214.853C29.024 215.128 31.606 216.767 34.762 218.495L40.5 221.637L45.5 218.764C48.25 217.184 50.5 215.423 50.5 214.85C50.5 214.278 48.237 212.517 45.471 210.937L40.443 208.065L34.735 211.209ZM82.735 211.209C79.596 212.938 77.026 214.578 77.025 214.853C77.024 215.128 79.629 216.784 82.814 218.533L88.604 221.712L93.552 218.823C96.273 217.233 98.5 215.455 98.5 214.871C98.5 214.287 96.237 212.517 93.471 210.937L88.443 208.065L82.735 211.209ZM130.735 211.209C127.596 212.938 125.026 214.578 125.025 214.853C125.024 215.128 127.629 216.784 130.814 218.533L136.604 221.712L141.552 218.823C144.273 217.233 146.5 215.455 146.5 214.871C146.5 214.287 144.237 212.517 141.471 210.937L136.443 208.065L130.735 211.209ZM278.5 209.082C277.4 209.691 274.753 211.282 272.618 212.617L268.736 215.045L274.592 218.364L280.448 221.683L286.18 218.518C292.557 214.997 292.533 214.837 285 210.541C281.361 208.466 280.117 208.187 278.5 209.082ZM371.208 211.011C368.343 212.665 366 214.394 366 214.853C366 215.312 368.343 217.041 371.208 218.695L376.415 221.701L382.196 218.527C385.375 216.781 387.976 215.128 387.976 214.853C387.976 214.578 385.375 212.925 382.196 211.179L376.415 208.005L371.208 211.011ZM467.5 210.942C464.75 212.522 462.5 214.282 462.5 214.853C462.5 215.424 464.75 217.184 467.5 218.764L472.5 221.637L478.238 218.495C481.394 216.767 483.976 215.128 483.976 214.853C483.976 214.578 481.394 212.939 478.238 211.211L472.5 208.069L467.5 210.942ZM5.75 232.476L0 235.942V242.398C0 245.948 0.337 248.849 0.75 248.844C1.163 248.838 3.862 247.479 6.75 245.823L12 242.813V235.833C12 231.994 11.888 228.888 11.75 228.932C11.612 228.975 8.913 230.57 5.75 232.476ZM54.268 232.305L49.035 235.353L49.018 242.198L49 249.043L53.75 246.315C60.329 242.537 60.132 242.882 59.799 235.706L59.5 229.257L54.268 232.305ZM102.268 232.305L97.035 235.353L97.018 242.165L97 248.978L102.117 246.193C104.931 244.661 107.429 242.898 107.668 242.275C107.907 241.652 107.967 238.468 107.801 235.199L107.5 229.256L102.268 232.305ZM69.204 236.488L69.5 243.123L74.75 246.084L80 249.046L79.999 242.2L79.998 235.353L75.102 232.603C72.409 231.091 69.914 229.853 69.557 229.853C69.2 229.853 69.042 232.839 69.204 236.488ZM197.754 232.632L193.008 235.353L193.004 242.2L193 249.046L198.25 246.084L203.5 243.123L203.796 236.488C203.958 232.839 203.733 229.866 203.296 229.882C202.858 229.897 200.364 231.135 197.754 232.632ZM213.204 236.488L213.5 243.123L218.75 246.084L224 249.046L223.999 242.2L223.998 235.353L219.102 232.603C216.409 231.091 213.914 229.853 213.557 229.853C213.2 229.853 213.042 232.839 213.204 236.488ZM261.204 236.488L261.5 243.123L266.75 246.084L272 249.046L271.999 242.2L271.998 235.353L267.102 232.603C264.409 231.091 261.914 229.853 261.557 229.853C261.2 229.853 261.042 232.839 261.204 236.488ZM341.754 232.632L337.008 235.353L337.004 242.2L337 249.046L342.25 246.084L347.5 243.123L347.796 236.488C347.958 232.839 347.733 229.866 347.296 229.882C346.858 229.897 344.364 231.135 341.754 232.632ZM357.204 236.488L357.5 243.123L362.75 246.084L368 249.046L367.999 242.2L367.998 235.353L363.102 232.603C360.409 231.091 357.914 229.853 357.557 229.853C357.2 229.853 357.042 232.839 357.204 236.488ZM389.754 232.632L385.008 235.353L385.004 242.2L385 249.046L390.25 246.084L395.5 243.123L395.796 236.488C395.958 232.839 395.733 229.866 395.296 229.882C394.858 229.897 392.364 231.135 389.754 232.632ZM405.204 236.488L405.5 243.123L410.75 246.084L416 249.046L415.999 242.2L415.998 235.353L411.102 232.603C408.409 231.091 405.914 229.853 405.557 229.853C405.2 229.853 405.042 232.839 405.204 236.488ZM437.754 232.632L433.008 235.353L433.004 242.2L433 249.046L438.25 246.084L443.5 243.123L443.796 236.488C443.958 232.839 443.733 229.866 443.296 229.882C442.858 229.897 440.364 231.135 437.754 232.632ZM453.204 236.488L453.5 243.123L458.75 246.084L464 249.046L463.999 242.2L463.998 235.353L459.102 232.603C456.409 231.091 453.914 229.853 453.557 229.853C453.2 229.853 453.042 232.839 453.204 236.488ZM106.25 253.006C103.363 254.678 101.186 256.34 101.412 256.699C101.639 257.059 104.263 258.667 107.244 260.272L112.664 263.192L118.391 259.915C121.541 258.113 123.979 256.509 123.809 256.352C122.807 255.424 112.792 249.863 112.206 249.909C111.818 249.94 109.138 251.334 106.25 253.006ZM298.137 253.237L292.774 256.577L298.259 259.715C301.275 261.441 304.084 262.853 304.5 262.853C304.916 262.853 307.725 261.441 310.741 259.715L316.226 256.577L310.863 253.237C307.913 251.401 305.05 249.898 304.5 249.898C303.95 249.898 301.087 251.401 298.137 253.237ZM394.137 253.237L388.774 256.577L394.259 259.715C397.275 261.441 400.084 262.853 400.5 262.853C400.916 262.853 403.725 261.441 406.741 259.715L412.226 256.577L406.863 253.237C403.913 251.401 401.05 249.898 400.5 249.898C399.95 249.898 397.087 251.401 394.137 253.237ZM442.3 253.118C439.439 254.816 437.262 256.463 437.461 256.779C437.661 257.095 440.263 258.667 443.244 260.272L448.664 263.192L454.445 259.884L460.226 256.577L454.863 253.237C451.913 251.401 449.05 249.928 448.5 249.965C447.95 250.002 445.16 251.42 442.3 253.118ZM30 274.163C24.82 277.272 24.482 277.718 24.184 281.828C24.011 284.229 24.125 287.217 24.44 288.468L25.011 290.744L30.505 287.588L36 284.432V277.642C36 273.908 35.888 270.855 35.75 270.857C35.612 270.859 33.025 272.347 30 274.163ZM45 277.56V284.432L50.543 287.615L56.087 290.799L55.793 283.771L55.5 276.742L50.25 273.715L45 270.688V277.56ZM141 277.56V284.432L146.543 287.615L152.087 290.799L151.793 283.771L151.5 276.742L146.25 273.715L141 270.688V277.56ZM174.25 273.958L169 277.018V283.884V290.75L174.5 287.591L180 284.432V277.642C180 273.908 179.887 270.863 179.75 270.875C179.613 270.887 177.137 272.274 174.25 273.958ZM189 277.56V284.432L194.543 287.615L200.087 290.799L199.793 283.771L199.5 276.742L194.25 273.715L189 270.688V277.56ZM222.25 273.958L217 277.018V283.884V290.75L222.5 287.591L228 284.432V277.642C228 273.908 227.887 270.863 227.75 270.875C227.613 270.887 225.137 272.274 222.25 273.958ZM237 277.56V284.432L242.543 287.615L248.087 290.799L247.793 283.771L247.5 276.742L242.25 273.715L237 270.688V277.56ZM270.25 273.958L265 277.018V283.884V290.75L270.5 287.591L276 284.432V277.642C276 273.908 275.887 270.863 275.75 270.875C275.613 270.887 273.137 272.274 270.25 273.958ZM285 277.56V284.432L290.543 287.615L296.087 290.799L295.793 283.771L295.5 276.742L290.25 273.715L285 270.688V277.56ZM318.25 273.958L313 277.018V283.884V290.75L318.5 287.591L324 284.432V277.642C324 273.908 323.887 270.863 323.75 270.875C323.613 270.887 321.137 272.274 318.25 273.958ZM381 277.56V284.432L386.543 287.615L392.087 290.799L391.793 283.771L391.5 276.742L386.25 273.715L381 270.688V277.56ZM429 277.56V284.432L434.543 287.615L440.087 290.799L439.793 283.771L439.5 276.742L434.25 273.715L429 270.688V277.56ZM462.25 273.958L457 277.018V283.884V290.75L462.5 287.591L468 284.432V277.642C468 273.908 467.887 270.863 467.75 270.875C467.613 270.887 465.137 272.274 462.25 273.958ZM477 277.56V284.432L482.543 287.615L488.087 290.799L487.793 283.771L487.5 276.742L482.25 273.715L477 270.688V277.56ZM82.547 294.621L76.777 298.15L82.602 301.452L88.427 304.754L94.194 301.583C97.365 299.84 99.632 298.104 99.23 297.726C98.829 297.348 96.209 295.7 93.409 294.065L88.317 291.092L82.547 294.621ZM130.547 294.621L124.777 298.15L130.602 301.452L136.427 304.754L142.194 301.583C145.365 299.84 147.632 298.104 147.23 297.726C146.829 297.348 144.209 295.7 141.409 294.065L136.317 291.092L130.547 294.621ZM178.547 294.621L172.777 298.15L178.602 301.452L184.427 304.754L190.194 301.583C193.365 299.84 195.632 298.104 195.23 297.726C194.829 297.348 192.209 295.7 189.409 294.065L184.317 291.092L178.547 294.621ZM226.547 294.621L220.777 298.15L226.602 301.452L232.427 304.754L238.194 301.583C241.365 299.84 243.632 298.104 243.23 297.726C242.829 297.348 240.209 295.7 237.409 294.065L232.317 291.092L226.547 294.621ZM274.547 294.621L268.777 298.15L274.602 301.452L280.427 304.754L286.194 301.583C289.365 299.84 291.632 298.104 291.23 297.726C290.829 297.348 288.209 295.7 285.409 294.065L280.317 291.092L274.547 294.621ZM370.605 294.621L364.709 298.112L370.568 301.433L376.427 304.754L382.266 301.553C388.804 297.97 388.93 298.45 380.085 293.242L376.5 291.131L370.605 294.621ZM466.131 294.951L460.761 298.03L463.76 299.853C472.312 305.054 472.086 305.03 478.426 301.436L484.214 298.156L479.092 295.004C476.275 293.271 473.414 291.857 472.735 291.862C472.056 291.868 469.084 293.257 466.131 294.951ZM5.25 315.958L0 319.018V325.436C0 332.814 0.36 332.995 7 328.963L11.5 326.23L11.796 319.541C11.958 315.863 11.733 312.863 11.296 312.875C10.858 312.887 8.138 314.274 5.25 315.958ZM69.201 319.416L69.5 326.23L74 328.963C76.475 330.466 78.838 331.731 79.25 331.774C79.662 331.818 80 328.934 80 325.366V318.878L75.924 316.305C68.799 311.807 68.867 311.776 69.201 319.416ZM101.764 315.664L97.029 318.353L97.014 325.103C97.006 328.815 97.338 331.818 97.75 331.774C98.162 331.731 100.525 330.466 103 328.963L107.5 326.23L107.796 319.541C107.958 315.863 107.733 312.88 107.296 312.914C106.858 312.947 104.369 314.184 101.764 315.664ZM165.201 319.416L165.5 326.23L170 328.963C172.475 330.466 174.838 331.731 175.25 331.774C175.662 331.818 176 328.934 176 325.366V318.878L171.924 316.305C164.799 311.807 164.867 311.776 165.201 319.416ZM197.764 315.664L193.029 318.353L193.014 325.103C193.006 328.815 193.338 331.818 193.75 331.774C194.162 331.731 196.525 330.466 199 328.963L203.5 326.23L203.796 319.541C203.958 315.863 203.733 312.88 203.296 312.914C202.858 312.947 200.369 314.184 197.764 315.664ZM309.204 319.541L309.5 326.23L314 328.963C316.475 330.466 318.837 331.731 319.25 331.774C319.663 331.818 319.994 328.815 319.986 325.103L319.971 318.353L314.985 315.603C312.243 314.091 309.754 312.853 309.454 312.853C309.154 312.853 309.042 315.863 309.204 319.541ZM357.204 319.541L357.5 326.23L362 328.963C364.475 330.466 366.837 331.731 367.25 331.774C367.663 331.818 367.994 328.815 367.986 325.103L367.971 318.353L362.985 315.603C360.243 314.091 357.754 312.853 357.454 312.853C357.154 312.853 357.042 315.863 357.204 319.541ZM405.204 319.541L405.5 326.23L410 328.963C412.475 330.466 414.837 331.731 415.25 331.774C415.663 331.818 415.994 328.815 415.986 325.103L415.971 318.353L410.985 315.603C408.243 314.091 405.754 312.853 405.454 312.853C405.154 312.853 405.042 315.863 405.204 319.541ZM437.75 315.874L433 318.857V325.355C433 328.929 433.337 331.818 433.75 331.774C434.163 331.731 436.525 330.466 439 328.963L443.5 326.23L443.796 319.541C443.958 315.863 443.733 312.862 443.296 312.872C442.858 312.882 440.363 314.233 437.75 315.874ZM10.244 336.15C4.375 339.632 4.415 339.812 12 344.05L16.5 346.564L22.395 343.079L28.291 339.594L22.395 336.236C19.153 334.389 16.275 332.913 16 332.955C15.725 332.997 13.135 334.435 10.244 336.15ZM58.189 336.309L52.878 339.606L57.954 342.73C60.746 344.448 63.586 345.849 64.265 345.844C64.944 345.838 67.938 344.436 70.919 342.727L76.337 339.62L70.419 336.249C67.163 334.395 64.275 332.908 64 332.945C63.725 332.982 61.11 334.496 58.189 336.309ZM250.131 336.344L244.762 339.676L250.131 342.755C253.084 344.449 255.95 345.834 256.5 345.834C257.05 345.834 259.915 344.449 262.866 342.757L268.233 339.68L262.566 336.266C259.45 334.389 256.585 332.889 256.2 332.932C255.815 332.976 253.084 334.511 250.131 336.344ZM298.513 336.305L292.663 339.62L298.081 342.727C301.062 344.436 303.95 345.834 304.5 345.834C305.05 345.834 307.916 344.449 310.869 342.755L316.239 339.676L313.24 337.853C304.679 332.647 304.921 332.672 298.513 336.305ZM442.581 336.249L436.663 339.62L442.081 342.727C445.062 344.436 447.95 345.834 448.5 345.834C449.05 345.834 451.915 344.449 454.866 342.757L460.233 339.68L454.566 336.266C451.45 334.389 448.81 332.859 448.7 332.866C448.59 332.872 445.837 334.395 442.581 336.249ZM30.61 356.822C27.92 358.399 25.339 360.289 24.875 361.021C23.972 362.446 23.652 373.853 24.515 373.853C24.798 373.853 27.498 372.46 30.515 370.758L36 367.662V360.758C36 356.96 35.888 353.876 35.75 353.903C35.612 353.931 33.299 355.244 30.61 356.822ZM45.207 360.935L45.5 367.964L50.75 370.991L56 374.018V367.146V360.274L50.457 357.091L44.913 353.907L45.207 360.935ZM78.25 357.075L73 360.046V366.992V373.937L77.75 371.231C84.359 367.465 84.131 367.864 83.799 360.63L83.5 354.105L78.25 357.075ZM93.204 360.799L93.5 367.964L98.75 370.991L104 374.018V367.176C104 361.726 103.644 360.121 102.25 359.286C101.287 358.709 98.792 357.201 96.704 355.935L92.908 353.633L93.204 360.799ZM126.25 357.075L121 360.046V366.992V373.937L125.75 371.231C132.359 367.465 132.131 367.864 131.799 360.63L131.5 354.105L126.25 357.075ZM174.25 357.075L169 360.046V366.992V373.937L173.75 371.231C180.359 367.465 180.131 367.864 179.799 360.63L179.5 354.105L174.25 357.075ZM189.204 360.769L189.5 367.905L194.75 370.899L200 373.893V367.114C200 361.723 199.641 360.119 198.25 359.286C197.287 358.709 194.792 357.201 192.704 355.935L188.908 353.633L189.204 360.769ZM237.204 360.769L237.5 367.905L242.75 370.899L248 373.893V367.114C248 361.723 247.641 360.119 246.25 359.286C245.288 358.709 242.792 357.201 240.704 355.935L236.908 353.633L237.204 360.769ZM285.204 360.769L285.5 367.905L290.75 370.899L296 373.893V367.114C296 361.723 295.641 360.119 294.25 359.286C293.288 358.709 290.792 357.201 288.704 355.935L284.908 353.633L285.204 360.769ZM366.25 357.169L361 360.335V367.136V373.937L365.75 371.231C372.36 367.464 372.131 367.868 371.799 360.579L371.5 354.003L366.25 357.169ZM381.205 360.833L381.5 367.905L386.795 370.925L392.089 373.945L391.795 366.873L391.5 359.801L386.205 356.781L380.911 353.761L381.205 360.833ZM462.25 357.26L457 360.261V367.099V373.937L461.75 371.231C468.356 367.466 468.131 367.858 467.799 360.707L467.5 354.259L462.25 357.26ZM477.205 360.833L477.5 367.905L482.795 370.925L488.089 373.945L487.795 366.873L487.5 359.801L482.205 356.781L476.911 353.761L477.205 360.833ZM34.25 377.958C31.362 379.641 29 381.163 29 381.34C29 381.517 31.545 383.098 34.656 384.854L40.312 388.046L44.406 385.785C52.824 381.137 52.74 381.423 46.693 377.963C43.703 376.253 40.861 374.863 40.378 374.875C39.895 374.887 37.138 376.274 34.25 377.958ZM82.197 377.988C79.28 379.689 77.03 381.206 77.197 381.36C77.364 381.515 79.945 383.075 82.932 384.829L88.365 388.016L92.432 385.77C100.82 381.14 100.738 381.422 94.693 377.963C91.703 376.253 88.861 374.863 88.378 374.875C87.895 374.887 85.114 376.288 82.197 377.988ZM130.145 378.018L124.79 381.139L130.145 384.474C133.09 386.307 135.818 387.818 136.206 387.83C136.799 387.849 146.859 382.235 147.809 381.354C148.239 380.957 137.461 374.848 136.378 374.875C135.895 374.887 133.09 376.302 130.145 378.018ZM178.197 377.988C175.28 379.689 173.03 381.206 173.197 381.36C173.364 381.515 175.945 383.075 178.932 384.829L184.365 388.016L188.432 385.77C196.82 381.14 196.738 381.422 190.693 377.963C187.703 376.253 184.861 374.863 184.378 374.875C183.895 374.887 181.114 376.288 178.197 377.988ZM322.197 377.988C319.28 379.689 317.03 381.206 317.197 381.36C317.364 381.515 319.945 383.075 322.932 384.829L328.365 388.016L332.432 385.77C340.82 381.14 340.738 381.422 334.693 377.963C331.703 376.253 328.861 374.863 328.378 374.875C327.895 374.887 325.114 376.288 322.197 377.988ZM466.197 377.988C463.28 379.689 461.03 381.206 461.197 381.36C462.146 382.238 472.204 387.849 472.794 387.83C473.182 387.818 475.913 386.305 478.863 384.469L484.226 381.129L478.741 377.991C475.725 376.265 472.861 374.863 472.378 374.875C471.895 374.887 469.114 376.288 466.197 377.988ZM5.25 399.146L0 402.261V408.557C0 412.086 0.439001 414.853 0.999001 414.853C1.549 414.853 4.243 413.615 6.985 412.103L11.971 409.353L11.986 402.603C11.994 398.891 11.663 395.893 11.25 395.942C10.837 395.991 8.138 397.433 5.25 399.146ZM20 402.28V408.706L25.372 411.78C28.326 413.47 31.026 414.853 31.372 414.853C31.717 414.853 32 411.967 32 408.439V402.025L26.985 398.939C24.227 397.242 21.527 395.853 20.985 395.853C20.441 395.853 20 398.727 20 402.28ZM54 398.743L49.5 401.476L49.204 408.165C49.042 411.843 49.154 414.853 49.454 414.853C49.754 414.853 52.243 413.615 54.985 412.103L59.971 409.353L59.986 402.603C59.994 398.891 59.662 395.888 59.25 395.932C58.838 395.975 56.475 397.24 54 398.743ZM69.001 402.506L69.002 409.353L73.898 412.103C76.591 413.615 79.086 414.853 79.443 414.853C79.8 414.853 79.958 411.867 79.796 408.218L79.5 401.583L74.25 398.622L69 395.66L69.001 402.506ZM102 398.743L97.5 401.476L97.204 408.165C97.042 411.843 97.154 414.853 97.454 414.853C97.754 414.853 100.243 413.615 102.985 412.103L107.971 409.353L107.986 402.603C107.994 398.891 107.662 395.888 107.25 395.932C106.838 395.975 104.475 397.24 102 398.743ZM198 398.743L193.5 401.476L193.204 408.165C193.042 411.843 193.154 414.853 193.454 414.853C193.754 414.853 196.243 413.615 198.985 412.103L203.971 409.353L203.986 402.603C203.994 398.891 203.662 395.888 203.25 395.932C202.838 395.975 200.475 397.24 198 398.743ZM213.014 402.603L213.029 409.353L218.015 412.103C220.757 413.615 223.226 414.853 223.501 414.853C223.775 414.853 224 411.967 224 408.439V402.025L218.985 398.939C216.227 397.242 213.752 395.853 213.485 395.853C213.218 395.853 213.006 398.891 213.014 402.603ZM261.014 402.603L261.029 409.353L266.015 412.103C268.757 413.615 271.226 414.853 271.501 414.853C271.775 414.853 272 411.967 272 408.439V402.025L266.985 398.939C264.227 397.242 261.752 395.853 261.485 395.853C261.218 395.853 261.006 398.891 261.014 402.603ZM309.014 402.603L309.029 409.353L314.015 412.103C316.757 413.615 319.226 414.853 319.501 414.853C319.775 414.853 320 411.967 320 408.439V402.025L314.985 398.939C312.227 397.242 309.752 395.853 309.485 395.853C309.218 395.853 309.006 398.891 309.014 402.603ZM357.014 402.603L357.029 409.353L362.015 412.103C364.757 413.615 367.226 414.853 367.501 414.853C367.775 414.853 368 411.967 368 408.439V402.025L362.985 398.939C360.227 397.242 357.752 395.853 357.485 395.853C357.218 395.853 357.006 398.891 357.014 402.603ZM389.75 399.007L385 402.022V408.438C385 411.966 385.225 414.853 385.499 414.853C385.774 414.853 388.243 413.615 390.985 412.103L395.971 409.353L395.986 402.603C395.994 398.891 395.663 395.884 395.25 395.923C394.837 395.961 392.363 397.349 389.75 399.007ZM405.014 402.603L405.029 409.353L410.015 412.103C412.757 413.615 415.226 414.853 415.501 414.853C415.775 414.853 416 411.967 416 408.439V402.025L410.985 398.939C408.227 397.242 405.752 395.853 405.485 395.853C405.218 395.853 405.006 398.891 405.014 402.603ZM438.25 398.883L433 401.893V408.373C433 411.937 433.225 414.853 433.499 414.853C433.774 414.853 436.243 413.615 438.985 412.103L443.971 409.353L443.986 402.603C443.994 398.891 443.887 395.857 443.75 395.862C443.613 395.868 441.137 397.227 438.25 398.883ZM453.014 402.603L453.029 409.353L458.015 412.103C460.757 413.615 463.246 414.853 463.546 414.853C463.846 414.853 463.958 411.843 463.796 408.165L463.5 401.476L459 398.743C456.525 397.24 454.163 395.975 453.75 395.932C453.337 395.888 453.006 398.891 453.014 402.603ZM10.709 419.169C7.569 420.908 5.005 422.561 5.012 422.842C5.018 423.123 7.606 424.767 10.762 426.495L16.5 429.637L21.339 426.856C24 425.327 26.563 423.688 27.035 423.214C27.513 422.734 25.356 420.95 22.155 419.18L16.418 416.006L10.709 419.169ZM154.618 419.323L148.736 422.661L152.618 425.089C160.392 429.951 159.992 429.898 165.454 426.779C168.229 425.194 170.5 423.414 170.5 422.823C170.5 422.233 168.25 420.453 165.5 418.868L160.5 415.985L154.618 419.323ZM250.592 419.342L244.736 422.661L248.618 425.089C256.375 429.94 256.069 429.89 260.97 427.107C268.525 422.818 268.543 422.702 262.18 419.188L256.448 416.023L250.592 419.342ZM346.603 419.336C340.029 423.062 339.751 422.077 348.948 427.626L352.395 429.706L356.948 427.121C364.528 422.816 364.546 422.703 358.18 419.188L352.448 416.023L346.603 419.336ZM29.909 440.383L24.318 443.756L24.106 450.305C23.99 453.906 24.201 456.853 24.575 456.853C24.95 456.853 27.674 455.47 30.628 453.78L36 450.706V443.78C36 439.97 35.888 436.888 35.75 436.932C35.612 436.975 32.984 438.528 29.909 440.383ZM78.25 440.26L73 443.261V450.152V457.043L77.75 454.315C84.329 450.537 84.132 450.882 83.799 443.707L83.5 437.259L78.25 440.26ZM126.268 440.305L121.035 443.353L121.018 450.198L121 457.043L125.75 454.315C132.329 450.537 132.132 450.882 131.799 443.706L131.5 437.257L126.268 440.305ZM222.268 440.305L217.035 443.353L217.018 450.198L217 457.043L221.75 454.315C228.329 450.537 228.132 450.882 227.799 443.706L227.5 437.257L222.268 440.305ZM285.207 443.93L285.5 450.964L290.75 453.991L296 457.018L295.98 450.186L295.961 443.353L290.437 440.125L284.913 436.896L285.207 443.93ZM429.207 443.935L429.5 450.964L434.75 453.991L440 457.018V450.146V443.274L434.457 440.091L428.913 436.907L429.207 443.935ZM477.207 443.935L477.5 450.964L482.75 453.991L488 457.018V450.146V443.274L482.457 440.091L476.913 436.907L477.207 443.935ZM45.204 444.488L45.5 451.123L50.75 454.084L56 457.046L55.999 450.2L55.998 443.353L51.102 440.603C48.409 439.091 45.914 437.853 45.557 437.853C45.2 437.853 45.042 440.839 45.204 444.488ZM141.204 444.488L141.5 451.123L146.75 454.084L152 457.046L151.999 450.2L151.998 443.353L147.102 440.603C144.409 439.091 141.914 437.853 141.557 437.853C141.2 437.853 141.042 440.839 141.204 444.488ZM365.754 440.632L361.008 443.353L361.004 450.2L361 457.046L366.25 454.084L371.5 451.123L371.796 444.488C371.958 440.839 371.733 437.866 371.296 437.882C370.858 437.897 368.364 439.135 365.754 440.632ZM413.754 440.632L409.008 443.353L409.004 450.2L409 457.046L414.25 454.084L419.5 451.123L419.796 444.488C419.958 440.839 419.733 437.866 419.296 437.882C418.858 437.897 416.364 439.135 413.754 440.632ZM461.754 440.632L457.008 443.353L457.004 450.2L457 457.046L462.25 454.084L467.5 451.123L467.796 444.488C467.958 440.839 467.733 437.866 467.296 437.882C466.858 437.897 464.364 439.135 461.754 440.632ZM34.25 461.006C31.363 462.678 29.186 464.34 29.412 464.699C29.639 465.059 32.236 466.652 35.184 468.24L40.545 471.127L46.368 467.841L52.191 464.555L46.845 461.226C43.905 459.396 41.05 457.913 40.5 457.932C39.95 457.95 37.138 459.334 34.25 461.006ZM82.25 461.006C79.363 462.678 77.186 464.34 77.412 464.699C77.639 465.059 80.236 466.652 83.184 468.24L88.545 471.127L94.368 467.841L100.191 464.555L94.845 461.226C91.905 459.396 89.05 457.913 88.5 457.932C87.95 457.95 85.138 459.334 82.25 461.006ZM130.74 460.747C128.121 462.284 125.732 463.788 125.43 464.089C125.128 464.391 127.454 466.11 130.599 467.91L136.317 471.181L141.408 468.378C144.209 466.836 146.868 465.247 147.317 464.847C148.081 464.167 137.937 457.793 136.265 457.903C135.844 457.931 133.358 459.211 130.74 460.747ZM178.74 460.747C176.121 462.284 173.732 463.788 173.43 464.089C173.128 464.391 175.454 466.11 178.599 467.91L184.317 471.181L189.408 468.378C192.209 466.836 194.868 465.247 195.317 464.847C196.081 464.167 185.937 457.793 184.265 457.903C183.844 457.931 181.358 459.211 178.74 460.747ZM226.74 460.747C224.121 462.284 221.732 463.788 221.43 464.089C221.128 464.391 223.454 466.11 226.599 467.91L232.317 471.181L237.408 468.378C240.209 466.836 242.868 465.247 243.317 464.847C244.081 464.167 233.937 457.793 232.265 457.903C231.844 457.931 229.358 459.211 226.74 460.747ZM322.74 460.747C320.121 462.284 317.732 463.788 317.43 464.089C317.128 464.391 319.459 466.113 322.609 467.915L328.336 471.192L333.756 468.272C336.737 466.667 339.362 465.058 339.588 464.698C340.009 464.029 329.65 457.812 328.265 457.903C327.844 457.931 325.358 459.211 322.74 460.747ZM466.155 461.226L460.809 464.555L466.632 467.841L472.455 471.127L477.816 468.24C480.764 466.652 483.362 465.058 483.588 464.698C484.002 464.041 473.699 457.833 472.265 457.876C471.844 457.888 469.095 459.396 466.155 461.226ZM5.956 482.109L0.5 485.365L0.202 492.208C0.0379997 495.972 0.268002 498.894 0.712002 498.702C1.157 498.51 3.878 497.044 6.76 495.444L12 492.535V485.694C12 481.931 11.868 478.853 11.706 478.853C11.544 478.853 8.956 480.318 5.956 482.109ZM20.204 485.446L20.5 492.038L26.25 495.419L32 498.8V491.9V485L26.628 481.926C23.674 480.236 20.953 478.853 20.583 478.853C20.212 478.853 20.042 481.82 20.204 485.446ZM54.25 481.958L49 485.018V491.436C49 494.965 49.271 497.853 49.603 497.853C49.934 497.853 52.409 496.616 55.102 495.103L59.998 492.353L59.999 485.603C60 481.891 59.888 478.863 59.75 478.875C59.612 478.887 57.138 480.274 54.25 481.958ZM69 485.56V492.432L74.543 495.615L80.087 498.799L79.793 491.771L79.5 484.742L74.25 481.715L69 478.688V485.56ZM102.25 481.958L97 485.018V491.888V498.758L102.48 495.556L107.961 492.353L107.98 485.603C107.991 481.891 107.887 478.863 107.75 478.875C107.613 478.887 105.137 480.274 102.25 481.958ZM117 485.56V492.432L122.543 495.615L128.087 498.799L127.793 491.771L127.5 484.742L122.25 481.715L117 478.688V485.56ZM246.25 481.958L241 485.018V491.888V498.758L246.48 495.556L251.961 492.353L251.98 485.603C251.991 481.891 251.887 478.863 251.75 478.875C251.613 478.887 249.137 480.274 246.25 481.958ZM294.25 481.958L289 485.018V491.884V498.75L294.5 495.591L300 492.432V485.642C300 481.908 299.887 478.863 299.75 478.875C299.613 478.887 297.137 480.274 294.25 481.958ZM390.25 481.958L385 485.018V491.888V498.758L390.48 495.556L395.961 492.353L395.98 485.603C395.991 481.891 395.887 478.863 395.75 478.875C395.613 478.887 393.137 480.274 390.25 481.958ZM438.25 481.958L433 485.018V491.884V498.75L438.5 495.591L444 492.432V485.642C444 481.908 443.887 478.863 443.75 478.875C443.613 478.887 441.137 480.274 438.25 481.958ZM453.02 485.52L453.039 492.353L458.563 495.581L464.087 498.81L463.793 491.776L463.5 484.742L458.25 481.715L453 478.688L453.02 485.52Z" fill="#f5f5f5"/>
</svg>
