<svg width="26" height="26" viewBox="0 0 26 26" fill="none" xmlns="http://www.w3.org/2000/svg">
<g clip-path="url(#clip0_20_6)">
<path d="M24.4034 18.3576C24.3604 18.3219 19.4943 14.8395 18.174 15.0678C17.5394 15.1799 17.1763 15.6122 16.4491 16.4791C16.248 16.7203 16.0424 16.9575 15.8324 17.1909C15.3728 17.0411 14.9245 16.8587 14.4909 16.6449C12.2529 15.5553 10.4447 13.7471 9.35512 11.5091C9.14133 11.0755 8.95886 10.6272 8.80913 10.1676C9.048 9.94906 9.38275 9.66713 9.52575 9.54688C10.3878 8.82375 10.8201 8.46056 10.9322 7.82519C11.1621 6.50975 7.67813 1.63962 7.64238 1.59575C7.48371 1.37073 7.27707 1.18375 7.03736 1.0483C6.79766 0.912851 6.53087 0.832313 6.25625 0.8125C4.84412 0.8125 0.8125 6.04175 0.8125 6.92331C0.8125 6.9745 0.886438 12.1777 7.30275 18.7046C13.8223 25.1136 19.0255 25.1875 19.0767 25.1875C19.9583 25.1875 25.1875 21.1559 25.1875 19.7437C25.1677 19.469 25.0871 19.2022 24.9515 18.9624C24.8159 18.7227 24.6287 18.5161 24.4034 18.3576ZM18.9873 23.5576C18.2772 23.4991 13.9108 22.9231 8.45163 17.5597C3.06069 12.0713 2.49925 7.69275 2.44319 7.01431C3.50819 5.34271 4.79439 3.82283 6.26681 2.496C6.29931 2.5285 6.34238 2.57725 6.39763 2.64062C7.52686 4.18212 8.49963 5.83234 9.3015 7.56681C9.04074 7.82915 8.76511 8.07628 8.476 8.307C8.02766 8.64862 7.61595 9.03581 7.2475 9.46237L7.05006 9.73863L7.10856 10.0726C7.28051 10.8174 7.54386 11.5381 7.89262 12.2184C9.14216 14.7843 11.2156 16.8574 13.7816 18.1066C14.4617 18.4558 15.1825 18.7195 15.9274 18.8914L16.2614 18.9499L16.5376 18.7525C16.9658 18.3824 17.3546 17.9691 17.6979 17.5191C17.9522 17.2153 18.2926 16.8098 18.421 16.6953C20.1604 17.4963 21.8148 18.4703 23.3594 19.6024C23.4268 19.6592 23.4739 19.7031 23.5056 19.7316C22.179 21.2044 20.6591 22.4909 18.9873 23.556V23.5576Z" fill="#b19777"/>
</g>
<defs>
<clipPath id="clip0_20_6">
<rect width="26" height="26" fill="white"/>
</clipPath>
</defs>
</svg>
