<svg width="44" height="40" viewBox="0 0 44 40" fill="none" xmlns="http://www.w3.org/2000/svg">
<g clip-path="url(#clip0_1320_7)">
<path d="M40.6282 33.7746C5.74265 33.7472 7.77772 33.8407 7.48593 33.7011C7.33629 33.63 7.20785 33.5103 7.12929 33.3494C7.07567 33.2384 0.320778 19.3595 0.309555 19.3359C-0.0670331 18.5178 -0.100701 17.6013 0.212291 16.7571C0.855732 15.0226 2.78481 14.1135 4.54555 14.7669C5.38601 15.0787 6.05689 15.6972 6.43347 16.5114L11.6334 27.031H40.6282C42.4874 27.031 44 28.5436 44 30.4028C44 32.2621 42.4874 33.7746 40.6282 33.7746ZM8.2815 32.2633H40.6282C41.6544 32.2633 42.4899 31.4278 42.4899 30.4016C42.4899 29.3753 41.6544 28.5398 40.6282 28.5398H11.1645C10.8777 28.5398 10.6146 28.3765 10.4874 28.1196C10.4251 27.9936 5.06928 17.1624 5.06554 17.1511C4.63907 16.2209 3.53674 15.8057 2.59652 16.2359C1.675 16.6586 1.24978 17.7522 1.67874 18.6974L8.2815 32.2633Z" fill="#b19777"/>
<path d="M19.4755 22.9498H8.39984C7.9821 22.9498 7.64417 22.6119 7.64417 22.1941C7.64417 21.7764 7.9821 21.4385 8.39984 21.4385H19.4743C19.892 21.4385 20.2299 21.7764 20.2299 22.1941C20.2299 22.6119 19.892 22.9498 19.4755 22.9498Z" fill="#b19777"/>
<path d="M18.5941 28.1345L15.6799 22.543C15.4866 22.1727 15.63 21.7175 16.0003 21.5242C16.3707 21.3309 16.8271 21.4743 17.0191 21.8447L19.9333 27.4362C20.1266 27.8065 19.9832 28.2629 19.6128 28.4549C19.255 28.6457 18.7911 28.511 18.5941 28.1345ZM13.8456 39.3772L9.07336 39.3224C8.80651 39.3199 8.5621 39.1765 8.42868 38.9458C8.29525 38.7151 8.29275 38.4308 8.42369 38.1988L11.5262 32.651C11.7294 32.2869 12.1896 32.1572 12.5537 32.3605C12.9178 32.5637 13.0475 33.0239 12.8442 33.388L10.3615 37.8272L13.4141 37.8622L16.3283 32.651C16.5316 32.2869 16.9917 32.1572 17.3558 32.3605C17.7199 32.5637 17.8496 33.0239 17.6464 33.388L14.5139 38.9907C14.3855 39.2201 14.1411 39.3772 13.8456 39.3772ZM35.1552 38.9907L32.0215 33.388C31.8183 33.0239 31.948 32.5637 32.3121 32.3605C32.6762 32.1572 33.1363 32.2869 33.3396 32.651L36.2538 37.8622L39.3064 37.8272L36.8237 33.388C36.6204 33.0239 36.7501 32.5637 37.1142 32.3605C37.4783 32.1572 37.9385 32.2869 38.1417 32.651L41.2442 38.1988C41.5248 38.7039 41.1619 39.3174 40.5945 39.3224L35.8223 39.3772C35.5318 39.3772 35.2849 39.2239 35.1552 38.9907ZM33.7349 14.783C30.994 14.783 28.7644 12.5534 28.7644 9.81258C28.7644 7.07172 30.994 4.84212 33.7349 4.84212C36.4758 4.84212 38.7054 7.07172 38.7054 9.81258C38.7054 12.5534 36.4745 14.783 33.7349 14.783ZM33.7349 6.35346C31.827 6.35346 30.2758 7.90595 30.2758 9.81258C30.2758 11.7192 31.8283 13.2717 33.7349 13.2717C35.6415 13.2717 37.194 11.7192 37.194 9.81258C37.194 7.90595 35.6415 6.35346 33.7349 6.35346ZM33.7349 3.95053C33.3172 3.95053 32.9792 3.6126 32.9792 3.19486V1.37676C32.9792 0.959025 33.3172 0.621094 33.7349 0.621094C34.1526 0.621094 34.4906 0.959025 34.4906 1.37676V3.19611C34.4893 3.6126 34.1514 3.95053 33.7349 3.95053ZM37.8799 5.66887C37.5843 5.37334 37.5843 4.89574 37.8799 4.60021L39.1667 3.31332C39.4623 3.01779 39.9399 3.01779 40.2354 3.31332C40.5309 3.60886 40.5309 4.08645 40.2354 4.38199L38.9485 5.66887C38.6492 5.96565 38.1716 5.96066 37.8799 5.66887ZM42.1707 10.5683H40.3514C39.9336 10.5683 39.5957 10.2303 39.5957 9.81258C39.5957 9.39485 39.9336 9.05691 40.3514 9.05691H42.1707C42.5884 9.05691 42.9264 9.39485 42.9264 9.81258C42.9264 10.2303 42.5884 10.5683 42.1707 10.5683ZM39.1655 16.3131L37.8786 15.0262C37.5831 14.7307 37.5831 14.2531 37.8786 13.9575C38.1741 13.662 38.6517 13.662 38.9473 13.9575L40.2342 15.2444C40.5297 15.54 40.5297 16.0176 40.2342 16.3131C39.9411 16.6061 39.461 16.6086 39.1655 16.3131ZM33.7349 19.0053C33.3172 19.0053 32.9792 18.6674 32.9792 18.2497V16.4303C32.9792 16.0126 33.3172 15.6746 33.7349 15.6746C34.1526 15.6746 34.4906 16.0126 34.4906 16.4303V18.2497C34.4893 18.6674 34.1514 19.0053 33.7349 19.0053ZM27.2344 16.3131C26.9388 16.0176 26.9388 15.54 27.2344 15.2444L28.5213 13.9575C28.8168 13.662 29.2944 13.662 29.5899 13.9575C29.8855 14.2531 29.8855 14.7307 29.5899 15.0262L28.303 16.3131C28.01 16.6061 27.5299 16.6086 27.2344 16.3131ZM27.1172 10.5683H25.2978C24.8801 10.5683 24.5422 10.2303 24.5422 9.81258C24.5422 9.39485 24.8801 9.05691 25.2978 9.05691H27.1172C27.5349 9.05691 27.8728 9.39485 27.8728 9.81258C27.8728 10.2303 27.5337 10.5683 27.1172 10.5683ZM28.5213 5.66887L27.2344 4.38199C26.9388 4.08645 26.9388 3.60886 27.2344 3.31332C27.5299 3.01779 28.0075 3.01779 28.303 3.31332L29.5899 4.60021C29.8855 4.89574 29.8855 5.37334 29.5899 5.66887C29.2907 5.96565 28.8131 5.96066 28.5213 5.66887Z" fill="#b19777"/>
</g>
<defs>
<clipPath id="clip0_1320_7">
<rect width="44" height="40" fill="white"/>
</clipPath>
</defs>
</svg>
