<svg width="26" height="26" viewBox="0 0 26 26" fill="none" xmlns="http://www.w3.org/2000/svg">
<path d="M20.9626 10.1968L21.0032 10.1562L21.0845 10.0749C21.1657 9.99367 21.247 9.91242 21.3688 9.83117L21.6126 9.58742L22.2626 8.97805C22.4251 8.81555 22.5063 8.5718 22.4251 8.32805L22.3032 8.0843C22.1001 7.88117 21.7751 7.84055 21.5313 7.96242C21.4907 8.00305 21.4501 8.00305 21.4095 8.04367L20.8813 8.53117C19.2563 9.99367 17.672 11.4155 16.047 12.878L14.9501 13.853C14.3813 14.3405 13.6907 14.5843 13.0001 14.5843C12.3095 14.5843 11.6595 14.3812 11.0501 13.853L9.95321 12.878C8.32821 11.4155 6.74384 9.99367 5.11884 8.53117L4.59071 8.04367C4.55009 8.00305 4.50946 8.00305 4.46884 7.96242C4.22509 7.79992 3.90009 7.88117 3.69696 8.0843C3.61571 8.16555 3.57509 8.2468 3.57509 8.32805C3.49384 8.53117 3.57509 8.81555 3.73759 8.97805L4.38759 9.58742L4.63134 9.83117C4.71259 9.91242 4.79384 9.99367 4.91571 10.0749L4.99696 10.1562L5.03759 10.1968C5.80946 10.928 6.62196 11.6187 7.39384 12.3093C7.67821 12.553 7.96259 12.8374 8.28759 13.1218L8.16571 13.2437C6.90634 14.503 5.64696 15.7218 4.38759 16.9812L4.22509 17.1437C4.06259 17.3468 4.06259 17.6312 4.18446 17.8343C4.34696 18.0374 4.59071 18.1593 4.83446 18.0374C4.95634 17.9968 5.07821 17.9155 5.15946 17.7937C6.41884 16.5749 7.67821 15.3155 8.93759 14.0968L9.14071 13.8937C9.50634 14.2187 9.83134 14.503 10.1563 14.7874C10.8063 15.3968 11.6188 15.7624 12.5126 15.8437C12.6751 15.8437 12.8376 15.8843 13.0001 15.8843C13.1626 15.8843 13.3251 15.8843 13.4876 15.8437C14.3813 15.7624 15.1532 15.3562 15.8438 14.7874C16.1688 14.503 16.4938 14.178 16.8595 13.8937C16.9407 13.9749 17.022 14.0155 17.0626 14.0968C18.322 15.3155 19.5813 16.5749 20.8407 17.7937C20.922 17.8749 21.0438 17.9968 21.1657 18.0374C21.4095 18.1187 21.6532 18.0374 21.8157 17.8343C21.9782 17.6312 21.9376 17.3468 21.7751 17.1437L21.6126 16.9812C20.3532 15.7218 19.0938 14.503 17.8345 13.2437L17.7126 13.1218C17.997 12.8374 18.2813 12.5937 18.6063 12.3093C19.3782 11.6187 20.1907 10.928 20.9626 10.1968Z" fill="#b19777"/>
<path d="M21.8564 22.2628H4.1439C2.11265 22.2628 0.447021 20.5972 0.447021 18.5659V7.43467C0.447021 5.40342 2.11265 3.73779 4.1439 3.73779H21.897C23.9283 3.73779 25.5939 5.40342 25.5939 7.43467V18.5659C25.5533 20.5972 23.9283 22.2628 21.8564 22.2628ZM4.1439 5.11904C2.8439 5.11904 1.82827 6.17529 1.82827 7.43467V18.5659C1.82827 19.8659 2.88452 20.8815 4.1439 20.8815H21.897C23.197 20.8815 24.2126 19.8253 24.2126 18.5659V7.43467C24.2126 6.13467 23.1564 5.11904 21.897 5.11904H4.1439Z" fill="#b19777"/>
</svg>
