<svg width="1920" height="195" viewBox="0 0 1920 195" fill="none" xmlns="http://www.w3.org/2000/svg">
<path d="M56.9999 79.5C56.8332 86 56.5999 100.1 56.9999 102.5H64.9999V127.5H68.4999V99H72.9999V64L56.9999 79.5Z" fill="#231717"/>
<path d="M76.4999 58.5V99H93.4999V44L76.4999 58.5Z" fill="#231717"/>
<path d="M117 75.5V112.5H134V140H141V90H146V85.5H157V55.5H153.5V52L142 45.5V50.5L140.5 51V52H139.5V53H138.5V54.5H137.5V74.5H135.5V76H129V70.5L118 64V75.5H117Z" fill="#231717"/>
<path d="M164.5 62.5V85.5H166.5V90H172.5V124.5H184V88.5H179.5V82H182.5V56.5L164.5 62.5Z" fill="#231717"/>
<path d="M283.5 60V85.5H289.5V90H295V122H301.5V56L288 60H283.5Z" fill="#231717"/>
<path d="M363.5 78.5V133.5H373.5V146.5V161.5H384.5H391.5V87.5H397.5V82.5H421.4V87.5H427.5L427.5 152H435.5V49H397V85H389.5V54.5H385.5V49H381.5V33.5H378V49H373.5V54.5H369.5V74L363.5 78.5Z" fill="#231717"/>
<path d="M446 28.5V152H455.5L455.365 105.012L455.5 105V95.6607V77L466.5 86V70H473V65H479.5V53H482V28.5H479V26H468.5V11H465V26H454.5V28.5H446Z" fill="#231717"/>
<path d="M494.5 42V69H498V93.5H513V98.5H535.5V71H522V81.5H516V22.5L494.5 42Z" fill="#231717"/>
<path d="M607.5 42V85H613.5V89.5H617V62.5H639.5V43H634.5V40.5H628V39H610.5L607.5 42Z" fill="#231717"/>
<path d="M650.5 31.5V54H679.5V29H672L670.5 26.5H659.5L658.5 31.5H650.5Z" fill="#231717"/>
<path d="M782.5 45C782.667 61.8333 782.9 97.1 782.5 99.5H792L792.5 130.5H801L801.5 96.5L812.5 87V51.5L782.5 45Z" fill="#231717"/>
<path d="M817 44L815.5 87L825 96.5L826 142H830.5V135H836.5V85.5L840.5 83.5L840 44L832 38.5H820.5L817 44Z" fill="#231717"/>
<path d="M950 50.5V96L959.5 93V152L975.5 151.5V77H979V50.5H971.5V30.5H966V10.5H962.5V30.5H956V50.5H950Z" fill="#231717"/>
<path d="M1008.5 59.5L1008 77H1012.5V142H1038.5V112L1043.5 109.5V103.5L1047 105.5L1052 98.8386V72.5H1057V60.5L1051 50.5H1049.5L1044.5 60.5V34.5H1047V31H1039.5V26H1034.5V14H1033.5V0.5H1031V14H1030V26H1024.5V31H1017V35.5H1020.5V61.5L1014 50.5L1008.5 59.5Z" fill="#231717"/>
<path d="M1202.5 87V109L1233.5 104V115H1240V87H1238.5V60H1231V33.5H1228.5V22.5H1226.5V15.5H1223V22.5H1221V33.5H1218.5V60H1210.5V87H1202.5Z" fill="#231717"/>
<path d="M1288.5 29V85.5L1310.5 74V56L1323.5 64V29H1321.5V26.5H1310.5V12H1307.5V26.5H1296.5V29H1288.5Z" fill="#231717"/>
<path d="M1337.5 47V118.5L1340.5 113V88L1357.5 76V55.5L1368.5 59V40H1364V34.5H1359V21.5H1354.5V34.5H1350V40H1345V55.5L1337.5 47Z" fill="#231717"/>
<path d="M1425.5 63V84.5H1433.81L1434 89.5H1437V99.5H1442.5V84.5H1445.5V63H1442V59H1428.5V63H1425.5Z" fill="#231717"/>
<path d="M1451.5 53V84.5H1464.5V53H1463V49H1461.5V47H1457.5V49H1454.5V53H1451.5Z" fill="#231717"/>
<path d="M1477.5 74L1477 92H1485V112H1497.5V92H1500.5V74L1491 67.5V65H1486.5V67.5L1477.5 74Z" fill="#231717"/>
<path d="M1586 46.5V55L1588 62.5L1588.5 118H1598.5V65L1614.5 58.5V40H1610V35.5H1606.5V24H1601.5V35.5H1597V40H1594L1586 46.5Z" fill="#231717"/>
<path d="M1635.5 44.5V67.5H1642.5V77H1653V47.5H1646.5V44.5H1635.5Z" fill="#231717"/>
<path d="M1665 70.5V76.5H1666.5V81H1669.5V87H1672.5V195H1678.5V121.279L1691 114L1690.5 62.5L1665 70.5Z" fill="#231717"/>
<path d="M1718.5 42V59.5L1726.5 63.5L1727 96.5H1730.5V83.5C1737.5 79.5 1752.5 71.5 1752.5 71.5C1752.5 71.5 1751.67 51.8333 1751.5 42.5H1747.5V38.5H1745V37.5H1742.5V36H1728V37.5H1723.5V42H1718.5Z" fill="#231717"/>
<path d="M1784.5 58C1784.5 75.3333 1784 111.9 1784 113.5H1786V153.254H1800V61L1801.5 60.5L1801 42L1784.5 58Z" fill="#231717"/>
<path d="M1829 52.5V67.5H1832.5V113.5H1849.5V108H1845.5V100H1863.5V90H1871.5V83.5L1890.5 74.5L1889 42H1884.5V38.5H1880.5V37H1865.5H1864L1863.5 38.5H1861V42.5H1855.5V55.5H1846.5V52.5H1837.5V49H1834.5V52.5H1829Z" fill="#231717"/>
</svg>
