<svg width="1920" height="216" viewBox="0 0 1920 216" fill="none" xmlns="http://www.w3.org/2000/svg">
<path d="M5 193.5H0V215.5H1920V102H1915.5V92H1863.5V102H1845.5V110H1849.5V159.5H1832.5V161H1831.5V164.5L1833.5 165V182C1833.5 183.6 1828.83 182.667 1826.5 182V155H1780.5V98.5H1720L1678.5 123.5V197H1672.5V89H1669.5V83H1666.5V79H1660.5V48H1658.5V79H1642.5V83H1634.5V89H1623.5V91H1626.5V131H1615.5V121H1588.5V63H1587.5V61H1586.5V59H1585.5V57H1584.5V55H1583.5V52.5H1580.5V55H1579.5V57H1578.5V59H1577.5V61H1576.5V63L1575.5 63.5V37H1578.5V32H1570.5V27H1564.5V13H1563.5V0H1561.5V13H1560.5V27H1555.5V32H1547.5V36H1549.5V37H1550.5V63.5H1549.5V61H1548.5V60H1547.5V58H1546.5V56H1545.5V55H1544.5V52H1542.5V55H1541.5V56H1540.5V58H1539.5V60H1538.5V61H1537.5V62.1608H1536.5V174H1534V179H1536.5V196.5H1519.5V121.5H1522.5V115H1459.5V121.5H1463.5V158H1459.5V150H1451.5V184.5H1459.5V175H1463.5V197.5H1446V195H1441.5V171H1436.5V92H1433.5V87H1423.5V59H1420.5V87H1399.5V92H1396.5V96.5H1397.5V164L1384.5 162V124H1388L1382.5 115H1341L1336 124H1339.5V138C1328.83 145.333 1307.4 160.2 1307 161C1306.6 161.8 1305.5 161.333 1305 161V157L1300.5 159.5V104.5V102H1247.5V126H1233.5V107L1146.5 118.5V121H1147.5V180H1144.5V47H1138.5L1131.5 35H1102L1094 47H1088.5V120H1078.5V100H1074V96H1068.5V88.5H1069.5V86H1063.5V96H1058.5V100.5H1052.5V112L1043.5 106V145H1012.5V80H1005.5V75H981.5V80H975.5V154.5H959.5V96L918.5 108V120L893.5 128H890.5V139H871.5V151C871.5 151.4 866.833 151.167 864.5 151V142H856L855.5 143H848.5V138H830.5V143H829H828.5L827.5 144V98H825.5V96H824.5V95H822.5V94H821.5V93H820.5V92H819.5V91H818.5V90H817.5V89H816.5V88H815.5V71H816.5V68H815.5V67H812.5V68H811.5V71H812.5V88H811.5V89H810.5V90H809.5V91H808.5V92H807.5V93H806.5V94H805.5V95H803.5V96H802.5V98H801V144.5H800L799.5 143.5H797V142H778.5V135H734.5V114.5H700.5V95.5L681 92.5H660.5L639 95V114H605V135H588.5V96L547.5 108V120H546.5V121H542.5V122H540.5H539.5V123H537.5V124H533.5V125H530.5V126H527.5V127H524.5V128H519.5V147.5H512V146.5H506.5V145.5H500.5V144H498.5V107H501.5V104H500.5V102H499.5V100H497.5V98H454.5V100H452.5V102H451.5V104H450.5V107H453.5V155H427.5V90H421.5V85H397.5V90H391.5V164H373.5V136H328.5V163H324.5V125H299.5V163H298L297.5 125H264V91.5H268V84L250 84.5V74.5H197.5V84.5H179.5V91.5H184V127L160 128V174L151.5 170.5V143H122V163H113.5V138H75.5V191H46.5V135.5V132H0L5 138V193.5Z" fill="#1B2633"/>
</svg>
