<svg width="1920" height="192" viewBox="0 0 1920 192" fill="none" xmlns="http://www.w3.org/2000/svg">
<path d="M455.5 74V92.5H497V102.5V139L501 140H507V141H511.5L512.5 142V91H497.5V67H492.5V62H485.5V50H479.5V62H473V67H466.5V83L455.5 74Z" fill="#322D2D"/>
<path d="M514 96V142H519V122.5H524V121.5H526.5V121H529.5V120H533V118.5H537.5V117.5H539.5V116.5H542.5V115.5L547 115V102.5L589 91V129.5H604.5V108.5H638.5V89.5L659.5 87.5H681.5V51.5H644.5V60.5H618V87.5H613V83H592.5V87.5H590.5V32L556 11.5V48L538.5 57V96H514Z" fill="#322D2D"/>
<path d="M686.5 65.5V88.5L700.5 90.5V109.5H718.5V54.5L686.5 65.5Z" fill="#322D2D"/>
<path d="M720.5 87.5V109.5H734.5V130H764.5V73.5L746 61.5V108.5H742V66.5L733 75H726.5V82.5L720.5 87.5Z" fill="#322D2D"/>
<path d="M766.5 96V130H778.5V137H797V140H801V127.5H792.5V96H766.5Z" fill="#322D2D"/>
<path d="M1038.5 109V139.5H1043V106.5L1038.5 109Z" fill="#322D2D"/>
<path d="M1052 96L1046.5 103L1052 106.5V96Z" fill="#322D2D"/>
<path d="M1053 70V95H1058V90.5H1063V80.5H1070V84H1068.5V90.5H1074.5V94.5H1078.5L1079 114.5H1088V103L1081.5 97V70H1074.5V62H1068.5V41H1065.5V62H1059.5V70H1053Z" fill="#322D2D"/>
<path d="M1145 64V175H1147.5V116.5H1146.5V113.5L1193.5 107V71.5H1179.5V51.5L1173.5 46V38H1167.5V21H1161.5V38H1155.5V46L1148.5 51.5V60L1145 64Z" fill="#322D2D"/>
<path d="M1233.5 112V120.5H1247.5V96.5H1263.5V54H1260V51.5H1244V55H1240V112H1233.5Z" fill="#322D2D"/>
<path d="M1285.5 85V96.5H1300.5V154L1305 151.5V156L1306.5 156.5L1309.5 153.5V72L1285.5 85Z" fill="#322D2D"/>
<path d="M1311.5 54.5V152.5L1334.5 136V68L1311.5 54.5Z" fill="#322D2D"/>
<path d="M1341.5 85V109.5H1382.5L1388.5 119.5H1384V156.5L1397.5 159.5V92H1396V86.5H1399V81.5H1403V66H1401.5V46.5L1385 54V67H1381.5V61.5L1358.5 54V74L1341.5 85Z" fill="#322D2D"/>
<path d="M1443.5 97.5H1437.5H1437L1436 165.5H1441.5V189H1446V191.5H1463.5V169H1459.5V178.5H1451.5V144.5H1459.5V152H1463.5V115.65H1459.5V109.5H1485V89H1473.5V82.5H1443.5V97.5Z" fill="#322D2D"/>
<path d="M1497.5 89V109.5H1522.5V115.5H1519.5V190.5L1536.5 191V173H1534V168H1536.5V89H1528V84H1515.5V49H1512.5V84H1500.5V89H1497.5Z" fill="#322D2D"/>
<path d="M1598.5 61.5V115H1615.5V125H1626.5V85H1623.5V83H1634.5V77.5H1642.5V63.5H1628.5V52.5L1619 57V54L1598.5 61.5Z" fill="#322D2D"/>
<path d="M1690.5 42.5V111L1719.5 92.5H1727L1727.5 60L1690.5 42.5Z" fill="#322D2D"/>
<path d="M1730.5 80V92.5H1777V55.5C1761.5 62.8333 1730.5 78 1730.5 80Z" fill="#322D2D"/>
<path d="M1786 109.5H1780.5V149.5H1786V109.5Z" fill="#322D2D"/>
<path d="M1800 57V149.5H1826.5V177H1833.5V159L1831.5 158.5V156H1832.5V154H1849.5V109.5H1832.5V63.5H1820.5V52.5L1810.5 57V54L1800 57Z" fill="#322D2D"/>
<path d="M1871.5 79.5V86L1915.5 86.5V96H1920L1919.5 56.5L1871.5 79.5Z" fill="#322D2D"/>
<path d="M836.5 82.5V132.5H849V137.5H855L856 136.5H864.5V146H871V133.5H889.5V123.5H892L918.5 115.5V103L947 94V57.5H933.5V32.5L928 25V17.5H921.5V0.5H915V17.5H909.5V25L902.5 31V45L892 58.5V100.5H879V76L873 71H864.5V39H860.5V71H854.5V76L847 76.5L836.5 82.5Z" fill="#322D2D"/>
<path d="M9 84.5V126.5H46.5V185H75.5V132.5H113.5V157H122V137H134V109.5H113V96H68.5V124.5H65V99.5H50.5V76.5H45V71.5H38.5V59.5H33.5V71.5H26.5V76.5H20.5V92L9 84.5Z" fill="#322D2D"/>
<path d="M141 87V137H151.5V165.5L160 168.5V121.5H172.5V87H166.5V82.5H146V87H141Z" fill="#322D2D"/>
<path d="M264 87V119H295V87H289.5V82.5H269V87H264Z" fill="#322D2D"/>
<path d="M301.5 83V119H324.5V157H328.5V130.5H363.5V88H359.5V83H343.5V88H340V119L325 106V83H318.5V64H317L307.5 70.5V83H301.5Z" fill="#322D2D"/>
</svg>
