<svg width="26" height="26" viewBox="0 0 26 26" fill="none" xmlns="http://www.w3.org/2000/svg">
<g clip-path="url(#clip0_18_53)">
<path d="M17.9163 12.7163L17.9048 12.7491L17.9149 12.7192L17.9163 12.7163Z" fill="#b19777"/>
<path d="M13.0005 0C8.71619 0 5.19995 3.5048 5.19995 7.77972C5.19995 9.43644 5.73035 10.9803 6.62475 12.245L6.59277 12.195L11.5863 20.8265L11.6116 20.8595C11.8128 21.1221 12.012 21.3338 12.253 21.4932C12.494 21.6525 12.8026 21.7532 13.1058 21.7227C13.7116 21.6619 14.0636 21.2433 14.3889 20.8023L14.4092 20.775L19.9144 11.4062L19.9188 11.3984C20.0506 11.1605 20.1461 10.9205 20.2277 10.6881C20.6051 9.76487 20.7995 8.7771 20.8 7.77972C20.8 3.5048 17.2848 0 13.0005 0ZM13.0005 1.3C16.5765 1.3 19.5 4.21668 19.5 7.77972C19.4998 8.61191 19.3373 9.43609 19.0216 10.206L19.0151 10.2222L19.0093 10.2391C18.941 10.4359 18.8666 10.6145 18.7808 10.7695L13.3315 20.0426C13.0904 20.3601 12.922 20.4352 12.976 20.4295C13.0039 20.4269 13.0296 20.4487 12.9701 20.4092C12.9131 20.3715 12.7969 20.261 12.6591 20.0853L7.70375 11.518L7.68633 11.4938C6.93935 10.4382 6.49995 9.1598 6.49995 7.77972C6.49995 4.21694 9.42443 1.3 13.0005 1.3ZM13.0005 3.341C10.5404 3.341 8.55057 5.32376 8.55057 7.77972C8.55057 10.2357 10.5406 12.2184 13.0005 12.2184C15.4603 12.2184 17.4493 10.2354 17.4493 7.77972C17.4493 5.32402 15.4603 3.341 13.0005 3.341ZM13.0005 4.641C14.7729 4.641 16.1493 6.0151 16.1493 7.77972C16.1493 9.54434 14.7732 10.9184 13.0005 10.9184C11.2278 10.9184 9.85057 9.54408 9.85057 7.77972C9.85057 6.0151 11.2281 4.641 13.0005 4.641Z" fill="#b19777"/>
<path d="M8.84166 17.9551C5.1689 18.474 2.6001 19.7155 2.6001 21.5431C2.6001 24.0048 6.89218 26.0003 13.0001 26.0003C19.108 26.0003 23.4001 24.0048 23.4001 21.5431C23.4001 19.7155 20.8316 18.474 17.1591 17.9551L16.6502 18.8214C19.4182 19.2054 21.3201 20.0125 21.3201 20.949C21.3201 22.262 17.5951 23.3262 13.0001 23.3262C8.40512 23.3262 4.6801 22.262 4.6801 20.949C4.67984 20.0156 6.56926 19.2093 9.3458 18.8237L8.84166 17.9551Z" fill="#b19777"/>
</g>
<defs>
<clipPath id="clip0_18_53">
<rect width="26" height="26" fill="white"/>
</clipPath>
</defs>
</svg>
