<svg width="1009" height="252" viewBox="0 0 1009 252" fill="none" xmlns="http://www.w3.org/2000/svg">
<g clip-path="url(#clip0_1274_7)">
<path d="M285.12 150V76.16H259.12V56.92H331.4V76.16H305.4V150H285.12ZM356.817 56.92H391.917C396.944 56.92 401.45 57.7 405.437 59.26C409.424 60.733 412.76 62.813 415.447 65.5C418.22 68.187 420.3 71.393 421.687 75.12C423.16 78.76 423.897 82.747 423.897 87.08C423.897 90.113 423.377 92.93 422.337 95.53C421.384 98.13 420.04 100.557 418.307 102.81C416.66 104.977 414.71 106.927 412.457 108.66C410.204 110.307 407.777 111.693 405.177 112.82V113.99L429.487 148.7V150H406.347L382.817 116.46H377.097V150H356.817V56.92ZM391.917 97.74C395.557 97.74 398.417 96.7 400.497 94.62C402.577 92.453 403.617 89.81 403.617 86.69C403.617 83.57 402.62 80.97 400.627 78.89C398.72 76.723 395.817 75.64 391.917 75.64H377.097V97.74H391.917ZM453.098 56.92H473.378V150H453.098V56.92ZM495.369 56.92H517.209L534.889 108.14L538.399 121.14H539.699L543.47 108.14L561.93 56.92H583.77L549.71 150H528.389L495.369 56.92ZM627.98 76.16V93.84H664.9V113.08H627.98V130.76H669.06V150H607.7V56.92H669.06V76.16H627.98ZM698.14 56.92H731.03C738.49 56.92 745.2 58.047 751.18 60.3C757.16 62.553 762.23 65.717 766.39 69.79C770.55 73.863 773.72 78.76 775.88 84.48C778.14 90.2 779.26 96.5271 779.26 103.46C779.26 110.393 778.14 116.72 775.88 122.44C773.72 128.16 770.55 133.057 766.39 137.13C762.23 141.203 757.16 144.367 751.18 146.62C745.2 148.873 738.49 150 731.03 150H698.14V56.92ZM729.99 130.76C735.02 130.76 739.35 130.11 742.99 128.81C746.63 127.423 749.62 125.517 751.96 123.09C754.39 120.663 756.17 117.803 757.29 114.51C758.42 111.13 758.98 107.447 758.98 103.46C758.98 99.4731 758.42 95.833 757.29 92.54C756.17 89.16 754.39 86.257 751.96 83.83C749.62 81.403 746.63 79.54 742.99 78.24C739.35 76.853 735.02 76.16 729.99 76.16H718.42V130.76H729.99ZM829.59 56.92H852.99L887.83 150H865.47L858.32 129.2H824.26L817.11 150H794.75L829.59 56.92ZM851.82 110.74L845.06 91.24L841.94 79.8H840.64L837.52 91.24L830.76 110.74H851.82ZM938.82 56.92H962.22L997.06 150H974.7L967.55 129.2H933.49L926.34 150H903.98L938.82 56.92ZM961.05 110.74L954.29 91.24L951.17 79.8H949.87L946.75 91.24L939.99 110.74H961.05Z" fill="white"/>
<path d="M285.12 150H283.12V152H285.12V150ZM285.12 76.16H287.12V74.16H285.12V76.16ZM259.12 76.16H257.12V78.16H259.12V76.16ZM259.12 56.92V54.92H257.12V56.92H259.12ZM331.4 56.92H333.4V54.92H331.4V56.92ZM331.4 76.16V78.16H333.4V76.16H331.4ZM305.4 76.16V74.16H303.4V76.16H305.4ZM305.4 150V152H307.4V150H305.4ZM287.12 150V76.16H283.12V150H287.12ZM285.12 74.16H259.12V78.16H285.12V74.16ZM261.12 76.16V56.92H257.12V76.16H261.12ZM259.12 58.92H331.4V54.92H259.12V58.92ZM329.4 56.92V76.16H333.4V56.92H329.4ZM331.4 74.16H305.4V78.16H331.4V74.16ZM303.4 76.16V150H307.4V76.16H303.4ZM305.4 148H285.12V152H305.4V148ZM356.817 56.92V54.92H354.817V56.92H356.817ZM405.437 59.26L404.708 61.122L404.726 61.129L404.744 61.136L405.437 59.26ZM415.447 65.5L414.033 66.914L414.044 66.925L414.055 66.936L415.447 65.5ZM421.687 75.12L419.813 75.817L419.822 75.844L419.833 75.87L421.687 75.12ZM422.337 95.53L420.48 94.787L420.469 94.814L420.459 94.841L422.337 95.53ZM418.307 102.81L416.722 101.591L416.715 101.6L418.307 102.81ZM412.457 108.66L413.637 110.275L413.657 110.26L413.676 110.245L412.457 108.66ZM405.177 112.82L404.382 110.985L403.177 111.507V112.82H405.177ZM405.177 113.99H403.177V114.621L403.539 115.137L405.177 113.99ZM429.487 148.7H431.487V148.069L431.125 147.553L429.487 148.7ZM429.487 150V152H431.487V150H429.487ZM406.347 150L404.71 151.149L405.307 152H406.347V150ZM382.817 116.46L384.454 115.311L383.857 114.46H382.817V116.46ZM377.097 116.46V114.46H375.097V116.46H377.097ZM377.097 150V152H379.097V150H377.097ZM356.817 150H354.817V152H356.817V150ZM400.497 94.62L401.911 96.034L401.926 96.02L401.94 96.005L400.497 94.62ZM400.627 78.89L399.126 80.211L399.154 80.243L399.183 80.274L400.627 78.89ZM377.097 75.64V73.64H375.097V75.64H377.097ZM377.097 97.74H375.097V99.74H377.097V97.74ZM356.817 58.92H391.917V54.92H356.817V58.92ZM391.917 58.92C396.737 58.92 400.99 59.668 404.708 61.122L406.166 57.398C401.91 55.732 397.15 54.92 391.917 54.92V58.92ZM404.744 61.136C408.492 62.521 411.573 64.455 414.033 66.914L416.861 64.086C413.947 61.172 410.356 58.945 406.13 57.384L404.744 61.136ZM414.055 66.936C416.608 69.41 418.527 72.361 419.813 75.817L423.561 74.423C422.074 70.425 419.832 66.964 416.839 64.064L414.055 66.936ZM419.833 75.87C421.2 79.248 421.897 82.977 421.897 87.08H425.897C425.897 82.516 425.12 78.272 423.541 74.37L419.833 75.87ZM421.897 87.08C421.897 89.88 421.418 92.442 420.48 94.787L424.194 96.273C425.336 93.418 425.897 90.346 425.897 87.08H421.897ZM420.459 94.841C419.578 97.246 418.335 99.494 416.722 101.591L419.892 104.029C421.746 101.619 423.19 99.014 424.215 96.219L420.459 94.841ZM416.715 101.6C415.18 103.619 413.357 105.445 411.238 107.075L413.676 110.245C416.064 108.409 418.141 106.334 419.899 104.02L416.715 101.6ZM411.277 107.045C409.145 108.603 406.848 109.916 404.382 110.985L405.972 114.655C408.706 113.47 411.262 112.01 413.637 110.275L411.277 107.045ZM403.177 112.82V113.99H407.177V112.82H403.177ZM403.539 115.137L427.849 149.847L431.125 147.553L406.815 112.843L403.539 115.137ZM427.487 148.7V150H431.487V148.7H427.487ZM429.487 148H406.347V152H429.487V148ZM407.984 148.851L384.454 115.311L381.18 117.609L404.71 151.149L407.984 148.851ZM382.817 114.46H377.097V118.46H382.817V114.46ZM375.097 116.46V150H379.097V116.46H375.097ZM377.097 148H356.817V152H377.097V148ZM358.817 150V56.92H354.817V150H358.817ZM391.917 99.74C395.954 99.74 399.371 98.574 401.911 96.034L399.083 93.206C397.463 94.826 395.16 95.74 391.917 95.74V99.74ZM401.94 96.005C404.392 93.45 405.617 90.304 405.617 86.69H401.617C401.617 89.316 400.762 91.456 399.054 93.235L401.94 96.005ZM405.617 86.69C405.617 83.101 404.452 79.991 402.071 77.506L399.183 80.274C400.788 81.949 401.617 84.039 401.617 86.69H405.617ZM402.128 77.569C399.722 74.834 396.18 73.64 391.917 73.64V77.64C395.454 77.64 397.719 78.613 399.126 80.211L402.128 77.569ZM391.917 73.64H377.097V77.64H391.917V73.64ZM375.097 75.64V97.74H379.097V75.64H375.097ZM377.097 99.74H391.917V95.74H377.097V99.74ZM453.098 56.92V54.92H451.098V56.92H453.098ZM473.378 56.92H475.378V54.92H473.378V56.92ZM473.378 150V152H475.378V150H473.378ZM453.098 150H451.098V152H453.098V150ZM453.098 58.92H473.378V54.92H453.098V58.92ZM471.378 56.92V150H475.378V56.92H471.378ZM473.378 148H453.098V152H473.378V148ZM455.098 150V56.92H451.098V150H455.098ZM495.369 56.92V54.92H492.537L493.484 57.589L495.369 56.92ZM517.209 56.92L519.099 56.267L518.634 54.92H517.209V56.92ZM534.889 108.14L536.819 107.619L536.802 107.552L536.779 107.487L534.889 108.14ZM538.399 121.14L536.468 121.661L536.867 123.14H538.399V121.14ZM539.699 121.14V123.14H541.2L541.62 121.697L539.699 121.14ZM543.47 108.14L541.59 107.462L541.57 107.522L541.55 107.583L543.47 108.14ZM561.93 56.92V54.92H560.52L560.05 56.242L561.93 56.92ZM583.77 56.92L585.65 57.607L586.63 54.92H583.77V56.92ZM549.71 150V152H551.11L551.59 150.687L549.71 150ZM528.389 150L526.504 150.669L526.976 152H528.389V150ZM495.369 58.92H517.209V54.92H495.369V58.92ZM515.318 57.573L532.998 108.793L536.779 107.487L519.099 56.267L515.318 57.573ZM532.958 108.661L536.468 121.661L540.33 120.619L536.819 107.619L532.958 108.661ZM538.399 123.14H539.699V119.14H538.399V123.14ZM541.62 121.697L545.39 108.697L541.55 107.583L537.778 120.583L541.62 121.697ZM545.35 108.818L563.81 57.598L560.05 56.242L541.59 107.462L545.35 108.818ZM561.93 58.92H583.77V54.92H561.93V58.92ZM581.89 56.233L547.83 149.313L551.59 150.687L585.65 57.607L581.89 56.233ZM549.71 148H528.389V152H549.71V148ZM530.274 149.331L497.254 56.251L493.484 57.589L526.504 150.669L530.274 149.331ZM627.98 76.16V74.16H625.98V76.16H627.98ZM627.98 93.84H625.98V95.84H627.98V93.84ZM664.9 93.84H666.9V91.84H664.9V93.84ZM664.9 113.08V115.08H666.9V113.08H664.9ZM627.98 113.08V111.08H625.98V113.08H627.98ZM627.98 130.76H625.98V132.76H627.98V130.76ZM669.06 130.76H671.06V128.76H669.06V130.76ZM669.06 150V152H671.06V150H669.06ZM607.7 150H605.7V152H607.7V150ZM607.7 56.92V54.92H605.7V56.92H607.7ZM669.06 56.92H671.06V54.92H669.06V56.92ZM669.06 76.16V78.16H671.06V76.16H669.06ZM625.98 76.16V93.84H629.98V76.16H625.98ZM627.98 95.84H664.9V91.84H627.98V95.84ZM662.9 93.84V113.08H666.9V93.84H662.9ZM664.9 111.08H627.98V115.08H664.9V111.08ZM625.98 113.08V130.76H629.98V113.08H625.98ZM627.98 132.76H669.06V128.76H627.98V132.76ZM667.06 130.76V150H671.06V130.76H667.06ZM669.06 148H607.7V152H669.06V148ZM609.7 150V56.92H605.7V150H609.7ZM607.7 58.92H669.06V54.92H607.7V58.92ZM667.06 56.92V76.16H671.06V56.92H667.06ZM669.06 74.16H627.98V78.16H669.06V74.16ZM698.14 56.92V54.92H696.14V56.92H698.14ZM775.88 84.48L774.01 85.188L774.02 85.201V85.213L775.88 84.48ZM775.88 122.44L774.02 121.707V121.719L774.01 121.732L775.88 122.44ZM698.14 150H696.14V152H698.14V150ZM742.99 128.81L743.67 130.693L743.69 130.686L743.71 130.679L742.99 128.81ZM751.96 123.09L750.55 121.676L750.54 121.689L750.52 121.702L751.96 123.09ZM757.29 114.51L759.19 115.157V115.15V115.142L757.29 114.51ZM757.29 92.54L755.4 93.172V93.18V93.187L757.29 92.54ZM751.96 83.83L750.52 85.218L750.54 85.231L750.55 85.244L751.96 83.83ZM742.99 78.24L742.28 80.109L742.3 80.116L742.32 80.123L742.99 78.24ZM718.42 76.16V74.16H716.42V76.16H718.42ZM718.42 130.76H716.42V132.76H718.42V130.76ZM698.14 58.92H731.03V54.92H698.14V58.92ZM731.03 58.92C738.29 58.92 744.76 60.016 750.48 62.172L751.89 58.428C745.65 56.077 738.69 54.92 731.03 54.92V58.92ZM750.48 62.172C756.22 64.337 761.05 67.358 764.99 71.219L767.79 68.361C763.42 64.075 758.1 60.77 751.89 58.428L750.48 62.172ZM764.99 71.219C768.94 75.079 771.94 79.726 774.01 85.188L777.75 83.772C775.49 77.794 772.17 72.648 767.79 68.361L764.99 71.219ZM774.02 85.213C776.17 90.672 777.26 96.7461 777.26 103.46H781.26C781.26 96.3081 780.1 89.728 777.74 83.747L774.02 85.213ZM777.26 103.46C777.26 110.174 776.17 116.248 774.02 121.707L777.74 123.173C780.1 117.192 781.26 110.612 781.26 103.46H777.26ZM774.01 121.732C771.94 127.194 768.94 131.841 764.99 135.701L767.79 138.559C772.17 134.272 775.49 129.126 777.75 123.148L774.01 121.732ZM764.99 135.701C761.05 139.562 756.22 142.583 750.48 144.748L751.89 148.492C758.1 146.15 763.42 142.845 767.79 138.559L764.99 135.701ZM750.48 144.748C744.76 146.904 738.29 148 731.03 148V152C738.69 152 745.65 150.843 751.89 148.492L750.48 144.748ZM731.03 148H698.14V152H731.03V148ZM700.14 150V56.92H696.14V150H700.14ZM729.99 132.76C735.18 132.76 739.76 132.09 743.67 130.693L742.32 126.927C738.95 128.13 734.86 128.76 729.99 128.76V132.76ZM743.71 130.679C747.58 129.204 750.83 127.147 753.4 124.478L750.52 121.702C748.42 123.886 745.69 125.643 742.28 126.941L743.71 130.679ZM753.38 124.504C756.02 121.859 757.96 118.735 759.19 115.157L755.4 113.863C754.37 116.871 752.76 119.468 750.55 121.676L753.38 124.504ZM759.19 115.142C760.39 111.536 760.98 107.636 760.98 103.46H756.98C756.98 107.257 756.45 110.724 755.4 113.878L759.19 115.142ZM760.98 103.46C760.98 99.2851 760.39 95.422 759.19 91.893L755.4 93.187C756.45 96.244 756.98 99.6621 756.98 103.46H760.98ZM759.19 91.908C757.97 88.245 756.03 85.07 753.38 82.416L750.55 85.244C752.75 87.443 754.36 90.075 755.4 93.172L759.19 91.908ZM753.4 82.442C750.82 79.763 747.55 77.745 743.67 76.357L742.32 80.123C745.71 81.335 748.43 83.044 750.52 85.218L753.4 82.442ZM743.71 76.371C739.78 74.877 735.2 74.16 729.99 74.16V78.16C734.84 78.16 738.92 78.83 742.28 80.109L743.71 76.371ZM729.99 74.16H718.42V78.16H729.99V74.16ZM716.42 76.16V130.76H720.42V76.16H716.42ZM718.42 132.76H729.99V128.76H718.42V132.76ZM829.59 56.92V54.92H828.2L827.72 56.219L829.59 56.92ZM852.99 56.92L854.86 56.219L854.38 54.92H852.99V56.92ZM887.83 150V152H890.71L889.7 149.299L887.83 150ZM865.47 150L863.58 150.65L864.04 152H865.47V150ZM858.32 129.2L860.21 128.55L859.75 127.2H858.32V129.2ZM824.26 129.2V127.2H822.83L822.37 128.55L824.26 129.2ZM817.11 150V152H818.54L819 150.65L817.11 150ZM794.75 150L792.88 149.299L791.87 152H794.75V150ZM851.82 110.74V112.74H854.63L853.71 110.085L851.82 110.74ZM845.06 91.24L843.13 91.766L843.15 91.831L843.17 91.895L845.06 91.24ZM841.94 79.8L843.87 79.274L843.47 77.8H841.94V79.8ZM840.64 79.8V77.8H839.11L838.71 79.274L840.64 79.8ZM837.52 91.24L839.41 91.895L839.43 91.831L839.45 91.766L837.52 91.24ZM830.76 110.74L828.87 110.085L827.95 112.74H830.76V110.74ZM829.59 58.92H852.99V54.92H829.59V58.92ZM851.12 57.621L885.96 150.701L889.7 149.299L854.86 56.219L851.12 57.621ZM887.83 148H865.47V152H887.83V148ZM867.36 149.35L860.21 128.55L856.43 129.85L863.58 150.65L867.36 149.35ZM858.32 127.2H824.26V131.2H858.32V127.2ZM822.37 128.55L815.22 149.35L819 150.65L826.15 129.85L822.37 128.55ZM817.11 148H794.75V152H817.11V148ZM796.62 150.701L831.46 57.621L827.72 56.219L792.88 149.299L796.62 150.701ZM853.71 110.085L846.95 90.585L843.17 91.895L849.93 111.395L853.71 110.085ZM846.99 90.714L843.87 79.274L840.01 80.326L843.13 91.766L846.99 90.714ZM841.94 77.8H840.64V81.8H841.94V77.8ZM838.71 79.274L835.59 90.714L839.45 91.766L842.57 80.326L838.71 79.274ZM835.63 90.585L828.87 110.085L832.65 111.395L839.41 91.895L835.63 90.585ZM830.76 112.74H851.82V108.74H830.76V112.74ZM938.82 56.92V54.92H937.43L936.95 56.219L938.82 56.92ZM962.22 56.92L964.09 56.219L963.61 54.92H962.22V56.92ZM997.06 150V152H999.94L998.93 149.299L997.06 150ZM974.7 150L972.81 150.65L973.27 152H974.7V150ZM967.55 129.2L969.44 128.55L968.98 127.2H967.55V129.2ZM933.49 129.2V127.2H932.06L931.6 128.55L933.49 129.2ZM926.34 150V152H927.77L928.23 150.65L926.34 150ZM903.98 150L902.11 149.299L901.1 152H903.98V150ZM961.05 110.74V112.74H963.86L962.94 110.085L961.05 110.74ZM954.29 91.24L952.36 91.766L952.38 91.831L952.4 91.895L954.29 91.24ZM951.17 79.8L953.1 79.274L952.7 77.8H951.17V79.8ZM949.87 79.8V77.8H948.34L947.94 79.274L949.87 79.8ZM946.75 91.24L948.64 91.895L948.66 91.831L948.68 91.766L946.75 91.24ZM939.99 110.74L938.1 110.085L937.18 112.74H939.99V110.74ZM938.82 58.92H962.22V54.92H938.82V58.92ZM960.35 57.621L995.19 150.701L998.93 149.299L964.09 56.219L960.35 57.621ZM997.06 148H974.7V152H997.06V148ZM976.59 149.35L969.44 128.55L965.66 129.85L972.81 150.65L976.59 149.35ZM967.55 127.2H933.49V131.2H967.55V127.2ZM931.6 128.55L924.45 149.35L928.23 150.65L935.38 129.85L931.6 128.55ZM926.34 148H903.98V152H926.34V148ZM905.85 150.701L940.69 57.621L936.95 56.219L902.11 149.299L905.85 150.701ZM962.94 110.085L956.18 90.585L952.4 91.895L959.16 111.395L962.94 110.085ZM956.22 90.714L953.1 79.274L949.24 80.326L952.36 91.766L956.22 90.714ZM951.17 77.8H949.87V81.8H951.17V77.8ZM947.94 79.274L944.82 90.714L948.68 91.766L951.8 80.326L947.94 79.274ZM944.86 90.585L938.1 110.085L941.88 111.395L948.64 91.895L944.86 90.585ZM939.99 112.74H961.05V108.74H939.99V112.74Z" fill="white"/>
<path d="M274.332 204V177.4H285.808C288.772 177.4 291.065 177.995 292.686 179.186C294.333 180.377 295.156 182.061 295.156 184.24C295.156 185.684 294.814 186.9 294.13 187.888C293.471 188.876 292.559 189.623 291.394 190.13C290.254 190.637 289 190.89 287.632 190.89L288.278 189.978C289.975 189.978 291.432 190.244 292.648 190.776C293.889 191.283 294.852 192.055 295.536 193.094C296.22 194.107 296.562 195.374 296.562 196.894C296.562 199.149 295.726 200.897 294.054 202.138C292.407 203.379 289.912 204 286.568 204H274.332ZM277.144 201.682H286.53C288.861 201.682 290.647 201.289 291.888 200.504C293.129 199.693 293.75 198.414 293.75 196.666C293.75 194.943 293.129 193.689 291.888 192.904C290.647 192.093 288.861 191.688 286.53 191.688H276.84V189.37H285.618C287.746 189.37 289.393 188.965 290.558 188.154C291.749 187.343 292.344 186.14 292.344 184.544C292.344 182.923 291.749 181.719 290.558 180.934C289.393 180.123 287.746 179.718 285.618 179.718H277.144V201.682ZM315.976 204.228C312.582 204.228 309.909 203.253 307.958 201.302C306.008 199.351 305.032 196.463 305.032 192.638V177.4H307.844V192.524C307.844 195.665 308.554 197.983 309.972 199.478C311.391 200.973 313.392 201.72 315.976 201.72C318.586 201.72 320.6 200.973 322.018 199.478C323.437 197.983 324.146 195.665 324.146 192.524V177.4H326.882V192.638C326.882 196.463 325.907 199.351 323.956 201.302C322.031 203.253 319.371 204.228 315.976 204.228ZM337.636 204V177.4H340.448V204H337.636ZM351.383 204V177.4H354.195V201.568H369.091V204H351.383ZM376.04 204V177.4H386.87C389.707 177.4 392.19 177.97 394.318 179.11C396.471 180.225 398.143 181.783 399.334 183.784C400.525 185.785 401.12 188.091 401.12 190.7C401.12 193.309 400.525 195.615 399.334 197.616C398.143 199.617 396.471 201.188 394.318 202.328C392.19 203.443 389.707 204 386.87 204H376.04ZM378.852 201.568H386.718C389.074 201.568 391.113 201.112 392.836 200.2C394.584 199.263 395.939 197.983 396.902 196.362C397.865 194.715 398.346 192.828 398.346 190.7C398.346 188.547 397.865 186.659 396.902 185.038C395.939 183.417 394.584 182.15 392.836 181.238C391.113 180.301 389.074 179.832 386.718 179.832H378.852V201.568ZM409.714 204V177.4H412.526V204H409.714ZM423.461 204V177.4H425.779L444.133 200.504H442.917V177.4H445.691V204H443.373L425.057 180.896H426.273V204H423.461ZM468.319 204.228C466.293 204.228 464.418 203.899 462.695 203.24C460.998 202.556 459.516 201.606 458.249 200.39C457.008 199.174 456.033 197.743 455.323 196.096C454.639 194.449 454.297 192.651 454.297 190.7C454.297 188.749 454.639 186.951 455.323 185.304C456.033 183.657 457.021 182.226 458.287 181.01C459.554 179.794 461.036 178.857 462.733 178.198C464.456 177.514 466.331 177.172 468.357 177.172C470.384 177.172 472.233 177.489 473.905 178.122C475.603 178.755 477.047 179.718 478.237 181.01L476.489 182.796C475.375 181.681 474.146 180.883 472.803 180.402C471.461 179.921 470.017 179.68 468.471 179.68C466.825 179.68 465.305 179.959 463.911 180.516C462.543 181.048 461.34 181.821 460.301 182.834C459.288 183.822 458.49 184.987 457.907 186.33C457.35 187.647 457.071 189.104 457.071 190.7C457.071 192.271 457.35 193.727 457.907 195.07C458.49 196.413 459.288 197.591 460.301 198.604C461.34 199.592 462.543 200.365 463.911 200.922C465.305 201.454 466.812 201.72 468.433 201.72C469.953 201.72 471.385 201.492 472.727 201.036C474.095 200.58 475.349 199.807 476.489 198.718L478.085 200.846C476.819 201.961 475.337 202.809 473.639 203.392C471.942 203.949 470.169 204.228 468.319 204.228ZM475.387 200.504V190.7H478.085V200.846L475.387 200.504ZM500.549 204V177.4H503.361V201.568H518.257V204H500.549ZM535.44 204.228C532.045 204.228 529.372 203.253 527.422 201.302C525.471 199.351 524.496 196.463 524.496 192.638V177.4H527.308V192.524C527.308 195.665 528.017 197.983 529.436 199.478C530.854 200.973 532.856 201.72 535.44 201.72C538.049 201.72 540.06 200.973 541.48 199.478C542.9 197.983 543.61 195.665 543.61 192.524V177.4H546.35V192.638C546.35 196.463 545.37 199.351 543.42 201.302C541.49 203.253 538.834 204.228 535.44 204.228ZM553.04 204L563.95 189.256V191.422L553.69 177.4H556.92L565.54 189.104L564.29 189.142L572.92 177.4H575.96L565.81 191.232V189.256L576.68 204H573.41L564.21 191.498H565.39L556.27 204H553.04ZM594.29 204.228C590.9 204.228 588.22 203.253 586.27 201.302C584.32 199.351 583.35 196.463 583.35 192.638V177.4H586.16V192.524C586.16 195.665 586.87 197.983 588.29 199.478C589.71 200.973 591.71 201.72 594.29 201.72C596.9 201.72 598.91 200.973 600.33 199.478C601.75 197.983 602.46 195.665 602.46 192.524V177.4H605.2V192.638C605.2 196.463 604.22 199.351 602.27 201.302C600.35 203.253 597.69 204.228 594.29 204.228ZM615.95 204V177.4H625.91C628.16 177.4 630.1 177.767 631.72 178.502C633.34 179.211 634.58 180.25 635.44 181.618C636.33 182.961 636.77 184.595 636.77 186.52C636.77 188.395 636.33 190.016 635.44 191.384C634.58 192.727 633.34 193.765 631.72 194.5C630.1 195.209 628.16 195.564 625.91 195.564H617.51L618.76 194.272V204H615.95ZM634.11 204L627.27 194.348H630.31L637.19 204H634.11ZM618.76 194.5L617.51 193.17H625.83C628.49 193.17 630.5 192.587 631.87 191.422C633.27 190.257 633.96 188.623 633.96 186.52C633.96 184.392 633.27 182.745 631.87 181.58C630.5 180.415 628.49 179.832 625.83 179.832H617.51L618.76 178.502V194.5ZM651.67 204V194.12L652.31 195.868L641.03 177.4H644.03L653.95 193.626H652.35L662.27 177.4H665.08L653.79 195.868L654.44 194.12V204H651.67ZM679.69 204L691.85 177.4H694.62L706.78 204H703.82L692.65 179.034H693.79L682.62 204H679.69ZM684.48 196.894L685.31 194.614H700.78L701.62 196.894H684.48ZM713.47 204V177.4H715.78L734.14 200.504H732.92V177.4H735.7V204H733.38L715.06 180.896H716.28V204H713.47ZM746.66 204V177.4H757.49C760.32 177.4 762.81 177.97 764.94 179.11C767.09 180.225 768.76 181.783 769.95 183.784C771.14 185.785 771.74 188.091 771.74 190.7C771.74 193.309 771.14 195.615 769.95 197.616C768.76 199.617 767.09 201.188 764.94 202.328C762.81 203.443 760.32 204 757.49 204H746.66ZM749.47 201.568H757.34C759.69 201.568 761.73 201.112 763.45 200.2C765.2 199.263 766.56 197.983 767.52 196.362C768.48 194.715 768.96 192.828 768.96 190.7C768.96 188.547 768.48 186.659 767.52 185.038C766.56 183.417 765.2 182.15 763.45 181.238C761.73 180.301 759.69 179.832 757.34 179.832H749.47V201.568ZM804.11 204.228C802.11 204.228 800.26 203.899 798.56 203.24C796.86 202.556 795.39 201.606 794.15 200.39C792.91 199.174 791.94 197.743 791.23 196.096C790.54 194.449 790.2 192.651 790.2 190.7C790.2 188.749 790.54 186.951 791.23 185.304C791.94 183.657 792.91 182.226 794.15 181.01C795.42 179.794 796.9 178.857 798.6 178.198C800.3 177.514 802.15 177.172 804.15 177.172C806.07 177.172 807.88 177.501 809.58 178.16C811.28 178.793 812.71 179.756 813.87 181.048L812.09 182.834C811 181.719 809.8 180.921 808.48 180.44C807.16 179.933 805.74 179.68 804.22 179.68C802.63 179.68 801.14 179.959 799.78 180.516C798.41 181.048 797.22 181.821 796.2 182.834C795.19 183.822 794.39 184.987 793.81 186.33C793.25 187.647 792.97 189.104 792.97 190.7C792.97 192.296 793.25 193.765 793.81 195.108C794.39 196.425 795.19 197.591 796.2 198.604C797.22 199.592 798.41 200.365 799.78 200.922C801.14 201.454 802.63 201.72 804.22 201.72C805.74 201.72 807.16 201.467 808.48 200.96C809.8 200.453 811 199.643 812.09 198.528L813.87 200.314C812.71 201.606 811.28 202.581 809.58 203.24C807.88 203.899 806.06 204.228 804.11 204.228ZM833.22 204.228C831.22 204.228 829.36 203.899 827.63 203.24C825.94 202.556 824.46 201.606 823.19 200.39C821.95 199.149 820.97 197.717 820.26 196.096C819.58 194.449 819.24 192.651 819.24 190.7C819.24 188.749 819.58 186.963 820.26 185.342C820.97 183.695 821.95 182.264 823.19 181.048C824.46 179.807 825.94 178.857 827.63 178.198C829.33 177.514 831.19 177.172 833.22 177.172C835.22 177.172 837.07 177.514 838.77 178.198C840.47 178.857 841.94 179.794 843.18 181.01C844.44 182.226 845.42 183.657 846.1 185.304C846.81 186.951 847.17 188.749 847.17 190.7C847.17 192.651 846.81 194.449 846.1 196.096C845.42 197.743 844.44 199.174 843.18 200.39C841.94 201.606 840.47 202.556 838.77 203.24C837.07 203.899 835.22 204.228 833.22 204.228ZM833.22 201.72C834.82 201.72 836.29 201.454 837.63 200.922C839 200.365 840.17 199.592 841.16 198.604C842.18 197.591 842.96 196.425 843.52 195.108C844.08 193.765 844.35 192.296 844.35 190.7C844.35 189.104 844.08 187.647 843.52 186.33C842.96 184.987 842.18 183.822 841.16 182.834C840.17 181.821 839 181.048 837.63 180.516C836.29 179.959 834.82 179.68 833.22 179.68C831.62 179.68 830.14 179.959 828.77 180.516C827.41 181.048 826.22 181.821 825.2 182.834C824.21 183.822 823.43 184.987 822.85 186.33C822.29 187.647 822.01 189.104 822.01 190.7C822.01 192.271 822.29 193.727 822.85 195.07C823.43 196.413 824.21 197.591 825.2 198.604C826.22 199.592 827.41 200.365 828.77 200.922C830.14 201.454 831.62 201.72 833.22 201.72ZM855.75 204V177.4H858.07L870.23 198.148H869.01L881.06 177.4H883.38V204H880.68V181.618H881.32L870.23 200.618H868.9L857.73 181.618H858.45V204H855.75ZM896.83 190.282H910.89V192.714H896.83V190.282ZM897.13 204H894.32V177.4H912.56V179.832H897.13V204ZM931.94 204.228C929.94 204.228 928.08 203.899 926.36 203.24C924.66 202.556 923.18 201.606 921.91 200.39C920.67 199.149 919.69 197.717 918.99 196.096C918.3 194.449 917.96 192.651 917.96 190.7C917.96 188.749 918.3 186.963 918.99 185.342C919.69 183.695 920.67 182.264 921.91 181.048C923.18 179.807 924.66 178.857 926.36 178.198C928.05 177.514 929.92 177.172 931.94 177.172C933.94 177.172 935.79 177.514 937.49 178.198C939.19 178.857 940.66 179.794 941.9 181.01C943.17 182.226 944.14 183.657 944.83 185.304C945.53 186.951 945.89 188.749 945.89 190.7C945.89 192.651 945.53 194.449 944.83 196.096C944.14 197.743 943.17 199.174 941.9 200.39C940.66 201.606 939.19 202.556 937.49 203.24C935.79 203.899 933.94 204.228 931.94 204.228ZM931.94 201.72C933.54 201.72 935.01 201.454 936.35 200.922C937.72 200.365 938.9 199.592 939.89 198.604C940.9 197.591 941.68 196.425 942.24 195.108C942.8 193.765 943.08 192.296 943.08 190.7C943.08 189.104 942.8 187.647 942.24 186.33C941.68 184.987 940.9 183.822 939.89 182.834C938.9 181.821 937.72 181.048 936.35 180.516C935.01 179.959 933.54 179.68 931.94 179.68C930.35 179.68 928.87 179.959 927.5 180.516C926.13 181.048 924.94 181.821 923.93 182.834C922.94 183.822 922.15 184.987 921.57 186.33C921.01 187.647 920.73 189.104 920.73 190.7C920.73 192.271 921.01 193.727 921.57 195.07C922.15 196.413 922.94 197.591 923.93 198.604C924.94 199.592 926.13 200.365 927.5 200.922C928.87 201.454 930.35 201.72 931.94 201.72ZM954.47 204V177.4H964.43C966.68 177.4 968.62 177.767 970.24 178.502C971.86 179.211 973.11 180.25 973.97 181.618C974.85 182.961 975.3 184.595 975.3 186.52C975.3 188.395 974.85 190.016 973.97 191.384C973.11 192.727 971.86 193.765 970.24 194.5C968.62 195.209 966.68 195.564 964.43 195.564H956.03L957.28 194.272V204H954.47ZM972.64 204L965.8 194.348H968.84L975.71 204H972.64ZM957.28 194.5L956.03 193.17H964.35C967.01 193.17 969.03 192.587 970.39 191.422C971.79 190.257 972.48 188.623 972.48 186.52C972.48 184.392 971.79 182.745 970.39 181.58C969.03 180.415 967.01 179.832 964.35 179.832H956.03L957.28 178.502V194.5ZM989.01 204V179.832H979.66V177.4H1001.17V179.832H991.82V204H989.01Z" fill="white"/>
<path d="M109.5 0L0 63.5V112L109.5 51.5L218.5 112V63.5L109.5 0Z" fill="white"/>
<path d="M87 240V77.5L109 65.5L130.5 77.5V240L108.5 252.5L87 240Z" fill="white"/>
<path d="M0 189.5L42 214.5V103L0 126V189.5Z" fill="white"/>
<path d="M218.5 189.5L176.5 214.5V103L218.5 126V189.5Z" fill="white"/>
<path d="M55.5 100.5V218.5" stroke="white" stroke-width="8" stroke-linecap="round"/>
<path d="M162.5 100.5V218.5" stroke="white" stroke-width="8" stroke-linecap="round"/>
<path d="M73.5 88.5V228.5" stroke="white" stroke-width="8" stroke-linecap="round"/>
<path d="M144.5 88.5V228.5" stroke="white" stroke-width="8" stroke-linecap="round"/>
</g>
<defs>
<clipPath id="clip0_1274_7">
<rect width="1009" height="252" fill="white"/>
</clipPath>
</defs>
</svg>
