<svg width="40" height="40" viewBox="0 0 40 40" fill="none" xmlns="http://www.w3.org/2000/svg">
<g clip-path="url(#clip0_1319_8)">
<path d="M39.5833 13.1958H29.1667V12.5708H30C30.1105 12.5708 30.2165 12.5269 30.2946 12.4488C30.3728 12.3706 30.4167 12.2646 30.4167 12.1541V10.3166C30.4167 10.2061 30.3728 10.1001 30.2946 10.022C30.2165 9.94386 30.1105 9.89996 30 9.89996H10C9.88949 9.89996 9.78351 9.94386 9.70537 10.022C9.62723 10.1001 9.58333 10.2061 9.58333 10.3166V12.1541C9.58333 12.2646 9.62723 12.3706 9.70537 12.4488C9.78351 12.5269 9.88949 12.5708 10 12.5708H10.8333V13.1958H0.416667C0.30616 13.1958 0.200179 13.2397 0.122039 13.3178C0.0438987 13.396 0 13.502 0 13.6125L0 15.4541C0 15.5646 0.0438987 15.6706 0.122039 15.7488C0.200179 15.8269 0.30616 15.8708 0.416667 15.8708H0.9375V39.5833C0.9375 39.6938 0.981399 39.7998 1.05954 39.8779C1.13768 39.9561 1.24366 40 1.35417 40H38.6458C38.7563 40 38.8623 39.9561 38.9405 39.8779C39.0186 39.7998 39.0625 39.6938 39.0625 39.5833V15.8708H39.5833C39.6938 15.8708 39.7998 15.8269 39.878 15.7488C39.9561 15.6706 40 15.5646 40 15.4541V13.6125C40 13.502 39.9561 13.396 39.878 13.3178C39.7998 13.2397 39.6938 13.1958 39.5833 13.1958ZM10.4167 11.7375V10.7333H29.5833V11.7375H10.4167ZM11.6667 12.5708H28.3333V31.2166H11.6667V12.5708ZM36.4583 32.05V33.3708H3.54167V32.05H36.4583ZM23.4208 39.1666H22.325V35.6083C22.325 35.4978 22.2811 35.3918 22.203 35.3137C22.1248 35.2355 22.0188 35.1916 21.9083 35.1916H18.0917C17.9812 35.1916 17.8752 35.2355 17.797 35.3137C17.7189 35.3918 17.675 35.4978 17.675 35.6083V39.1666H16.5792V34.2041H23.4208V39.1666ZM0.833333 15.0375V14.0291H10.8333V15.0375H0.833333ZM1.77083 15.8708H10.8333V31.2166H3.125C3.01449 31.2166 2.90851 31.2605 2.83037 31.3387C2.75223 31.4168 2.70833 31.5228 2.70833 31.6333V33.7875C2.70833 33.898 2.75223 34.0039 2.83037 34.0821C2.90851 34.1602 3.01449 34.2041 3.125 34.2041H3.97917V39.1666H1.77083V15.8708ZM4.8125 34.2041H14.1667V39.1666H4.8125V34.2041ZM15 39.1666V34.2041H15.7625V39.1666H15ZM18.525 39.1666V36.025H21.5083V39.1666H18.525ZM24.2708 39.1666V34.2041H25V39.1666H24.2708ZM25.8333 39.1666V34.2041H35.1875V39.1666H25.8333ZM38.2125 39.1666H36.0042V34.2041H36.8375C36.948 34.2041 37.054 34.1602 37.1321 34.0821C37.2103 34.0039 37.2542 33.898 37.2542 33.7875V31.6333C37.2542 31.5228 37.2103 31.4168 37.1321 31.3387C37.054 31.2605 36.948 31.2166 36.8375 31.2166H29.1667V15.8708H38.2292L38.2125 39.1666ZM39.1667 15.0375H29.1667V14.0291H39.1667V15.0375ZM25.7042 5.04996L25.5083 6.2083C25.4866 6.33403 25.5006 6.46332 25.5486 6.58154C25.5966 6.69975 25.6767 6.80216 25.7799 6.87718C25.8831 6.9522 26.0053 6.99683 26.1326 7.00601C26.2598 7.01519 26.3871 6.98856 26.5 6.92913L27.5375 6.3833C28.6292 6.9583 28.6708 7.0083 28.8958 7.0083C28.9966 7.0104 29.0967 6.99016 29.1887 6.94905C29.2808 6.90793 29.3626 6.84695 29.4283 6.77049C29.494 6.69402 29.542 6.60396 29.5688 6.50676C29.5956 6.40956 29.6006 6.30764 29.5833 6.2083L29.3875 5.04996L30.2208 4.21663C30.3125 4.12764 30.3773 4.01475 30.4081 3.89077C30.4388 3.76678 30.4341 3.63667 30.3947 3.51519C30.3552 3.39371 30.2824 3.28572 30.1847 3.20349C30.087 3.12126 29.9681 3.06807 29.8417 3.04996L28.6708 2.91663L28.15 1.8458C28.0935 1.7316 28.0062 1.63547 27.898 1.56826C27.7898 1.50105 27.6649 1.46543 27.5375 1.46543C27.4101 1.46543 27.2852 1.50105 27.177 1.56826C27.0688 1.63547 26.9815 1.7316 26.925 1.8458L26.4042 2.91663L25.2417 3.0833C25.1161 3.10285 24.9984 3.15682 24.9016 3.23923C24.8049 3.32164 24.7329 3.42925 24.6936 3.55012C24.6543 3.67099 24.6493 3.80038 24.6791 3.92392C24.7089 4.04746 24.7724 4.16032 24.8625 4.24996L25.7042 5.04996ZM26.6042 3.71246C26.7137 3.695 26.8175 3.65144 26.9067 3.58545C26.9959 3.51946 27.0679 3.43297 27.1167 3.3333L27.5333 2.49996L27.95 3.3333C27.9993 3.43219 28.0715 3.51785 28.1607 3.58309C28.2498 3.64833 28.3533 3.69127 28.4625 3.7083L29.4042 3.84163L28.75 4.5083C28.6698 4.58586 28.6097 4.68177 28.5748 4.78776C28.54 4.89374 28.5315 5.00661 28.55 5.11663L28.7125 6.04996L27.8792 5.6083C27.7815 5.55684 27.6729 5.52995 27.5625 5.52995C27.4521 5.52995 27.3435 5.55684 27.2458 5.6083L26.4125 6.04996L26.5708 5.11663C26.591 5.00695 26.5836 4.89398 26.5495 4.78782C26.5153 4.68166 26.4554 4.58563 26.375 4.5083L25.6625 3.8458L26.6042 3.71246ZM18.1667 3.58746L17.9708 4.7458C17.9491 4.87153 17.9631 5.00082 18.0111 5.11904C18.0591 5.23725 18.1392 5.33966 18.2424 5.41468C18.3456 5.4897 18.4678 5.53433 18.5951 5.54351C18.7223 5.55269 18.8496 5.52606 18.9625 5.46663L20 4.9208C21.0917 5.4958 21.1333 5.5458 21.3583 5.5458C21.4577 5.54544 21.5559 5.5234 21.6459 5.48121C21.7359 5.43902 21.8156 5.3777 21.8795 5.30154C21.9433 5.22537 21.9898 5.13618 22.0157 5.04019C22.0415 4.94421 22.0461 4.84374 22.0292 4.7458L21.8333 3.58746L22.6667 2.75413C22.7582 2.66542 22.8231 2.55286 22.8541 2.42918C22.885 2.3055 22.8807 2.17563 22.8417 2.05426C22.8027 1.93289 22.7305 1.82485 22.6333 1.74236C22.5361 1.65987 22.4178 1.60621 22.2917 1.58746L21.1292 1.4208L20.6125 0.383297C20.556 0.269101 20.4687 0.172971 20.3605 0.105759C20.2523 0.0385464 20.1274 0.00292969 20 0.00292969C19.8726 0.00292969 19.7477 0.0385464 19.6395 0.105759C19.5313 0.172971 19.444 0.269101 19.3875 0.383297L18.8667 1.43746L17.7042 1.60413C17.5781 1.62288 17.4597 1.67653 17.3625 1.75902C17.2653 1.84151 17.1931 1.94955 17.1541 2.07093C17.1151 2.1923 17.1108 2.32217 17.1418 2.44585C17.1727 2.56953 17.2376 2.68208 17.3292 2.7708L18.1667 3.58746ZM19.0667 2.24996C19.1766 2.23356 19.2809 2.19092 19.3709 2.12564C19.4608 2.06036 19.5337 1.97438 19.5833 1.87496L20 1.04163L20.4167 1.87496C20.4659 1.97386 20.5382 2.05951 20.6273 2.12476C20.7165 2.19 20.82 2.23293 20.9292 2.24996L21.8708 2.38746L21.1958 3.0458C21.1156 3.12336 21.0555 3.21927 21.0207 3.32526C20.9858 3.43124 20.9773 3.54411 20.9958 3.65413L21.1583 4.5833L20.325 4.14163C20.2274 4.09018 20.1187 4.06329 20.0083 4.06329C19.898 4.06329 19.7893 4.09018 19.6917 4.14163L18.8583 4.5833L19.0208 3.64996C19.0394 3.53995 19.0308 3.42707 18.996 3.32109C18.9611 3.2151 18.901 3.11919 18.8208 3.04163L18.125 2.38746L19.0667 2.24996ZM10.6292 5.04996L10.4167 6.2083C10.395 6.33403 10.4089 6.46332 10.4569 6.58154C10.5049 6.69975 10.5851 6.80216 10.6883 6.87718C10.7915 6.9522 10.9136 6.99683 11.0409 7.00601C11.1681 7.01519 11.2954 6.98856 11.4083 6.92913L12.4458 6.3833C13.5375 6.9583 13.5792 7.0083 13.8042 7.0083C13.9036 7.00794 14.0017 6.9859 14.0917 6.94371C14.1817 6.90152 14.2614 6.8402 14.3253 6.76403C14.3892 6.68787 14.4357 6.59868 14.4615 6.5027C14.4874 6.40671 14.492 6.30624 14.475 6.2083L14.2792 5.04996L15.1125 4.21663C15.2026 4.12699 15.2661 4.01413 15.2959 3.89059C15.3257 3.76704 15.3207 3.63765 15.2814 3.51679C15.2421 3.39592 15.1701 3.2883 15.0734 3.2059C14.9766 3.12349 14.8589 3.06951 14.7333 3.04996L13.5958 2.91663L13.075 1.8458C13.0185 1.7316 12.9312 1.63547 12.823 1.56826C12.7148 1.50105 12.5899 1.46543 12.4625 1.46543C12.3351 1.46543 12.2102 1.50105 12.102 1.56826C11.9938 1.63547 11.9065 1.7316 11.85 1.8458L11.3292 2.91663L10.1667 3.0833C10.0406 3.10205 9.92222 3.1557 9.82502 3.23819C9.72781 3.32068 9.65562 3.42872 9.61661 3.55009C9.5776 3.67147 9.57332 3.80133 9.60425 3.92501C9.63519 4.04869 9.7001 4.16125 9.79167 4.24996L10.6292 5.04996ZM11.5292 3.71246C11.6387 3.695 11.7425 3.65144 11.8317 3.58545C11.9209 3.51946 11.9929 3.43297 12.0417 3.3333L12.4583 2.49996L12.875 3.3333C12.9243 3.43219 12.9965 3.51785 13.0857 3.58309C13.1748 3.64833 13.2783 3.69127 13.3875 3.7083L14.3292 3.84163L13.65 4.50413C13.5698 4.58169 13.5097 4.6776 13.4748 4.78359C13.44 4.88957 13.4315 5.00245 13.45 5.11246L13.6125 6.0458C12.2875 5.34996 12.6208 5.34996 11.2958 6.0458L11.4583 5.11246C11.4751 5.00242 11.4649 4.88994 11.4286 4.7847C11.3923 4.67946 11.331 4.58461 11.25 4.5083L10.5875 3.8458L11.5292 3.71246ZM3.375 6.89163L3.17917 8.04996C3.15803 8.17514 3.17218 8.30372 3.22004 8.4213C3.26789 8.53888 3.34754 8.64081 3.45008 8.71566C3.55261 8.7905 3.67397 8.83531 3.80054 8.84505C3.92711 8.85478 4.05389 8.82907 4.16667 8.7708L5.20417 8.22496C6.29583 8.7958 6.3375 8.84996 6.5625 8.84996C6.6619 8.8496 6.76003 8.82756 6.85004 8.78537C6.94005 8.74319 7.01977 8.68187 7.08364 8.6057C7.14751 8.52953 7.194 8.44034 7.21985 8.34436C7.2457 8.24838 7.25031 8.14791 7.23333 8.04996L7.0375 6.89163L7.87083 6.0583C7.96275 5.9701 8.02801 5.85782 8.05915 5.7343C8.0903 5.61078 8.08607 5.48098 8.04696 5.35975C8.00786 5.23851 7.93544 5.13072 7.83798 5.04868C7.74053 4.96664 7.62196 4.91366 7.49583 4.8958L6.33333 4.72496L5.83333 3.68746C5.77685 3.57327 5.68956 3.47714 5.58133 3.40993C5.4731 3.34271 5.34824 3.3071 5.22083 3.3071C5.09343 3.3071 4.96857 3.34271 4.86033 3.40993C4.7521 3.47714 4.66482 3.57327 4.60833 3.68746L4.075 4.73746L2.91667 4.9083C2.79107 4.92699 2.67317 4.9803 2.57618 5.06226C2.4792 5.14422 2.40697 5.25158 2.3676 5.37229C2.32822 5.49301 2.32326 5.62231 2.35327 5.74569C2.38328 5.86907 2.44708 5.98165 2.5375 6.0708L3.375 6.89163ZM4.275 5.54996C4.38422 5.53472 4.48804 5.49295 4.57738 5.4283C4.66672 5.36366 4.73887 5.2781 4.7875 5.17913L5.20417 4.3458L5.62083 5.17913C5.66947 5.2781 5.74161 5.36366 5.83095 5.4283C5.92029 5.49295 6.02411 5.53472 6.13333 5.54996L7.075 5.68746L6.39583 6.34996C6.31598 6.42689 6.25605 6.52209 6.22121 6.62734C6.18636 6.7326 6.17765 6.84476 6.19583 6.95413L6.35833 7.89163L5.525 7.44996C5.42738 7.39851 5.31869 7.37162 5.20833 7.37162C5.09798 7.37162 4.98929 7.39851 4.89167 7.44996C4.85 7.44996 5.10417 7.33746 4.05833 7.89163L4.22083 6.95413C4.23901 6.84476 4.2303 6.7326 4.19546 6.62734C4.16062 6.52209 4.10068 6.42689 4.02083 6.34996L3.33333 5.68746L4.275 5.54996ZM32.9583 6.89163L32.7625 8.04996C32.7414 8.17514 32.7555 8.30372 32.8034 8.4213C32.8512 8.53888 32.9309 8.64081 33.0334 8.71566C33.1359 8.7905 33.2573 8.83531 33.3839 8.84505C33.5104 8.85478 33.6372 8.82907 33.75 8.7708L34.7875 8.22496C35.8792 8.7958 35.9208 8.84996 36.1458 8.84996C36.2452 8.8496 36.3434 8.82756 36.4334 8.78537C36.5234 8.74319 36.6031 8.68187 36.667 8.6057C36.7308 8.52953 36.7773 8.44034 36.8032 8.34436C36.829 8.24838 36.8336 8.14791 36.8167 8.04996L36.6208 6.89163L37.4542 6.0583C37.5461 5.9701 37.6113 5.85782 37.6425 5.7343C37.6736 5.61078 37.6694 5.48098 37.6303 5.35975C37.5912 5.23851 37.5188 5.13072 37.4213 5.04868C37.3239 4.96664 37.2053 4.91366 37.0792 4.8958L35.9167 4.72496L35.4167 3.68746C35.3602 3.57327 35.2729 3.47714 35.1647 3.40993C35.0564 3.34271 34.9316 3.3071 34.8042 3.3071C34.6768 3.3071 34.5519 3.34271 34.4437 3.40993C34.3354 3.47714 34.2481 3.57327 34.1917 3.68746L33.6708 4.74163L32.5 4.9083C32.3744 4.92699 32.2565 4.9803 32.1595 5.06226C32.0625 5.14422 31.9903 5.25158 31.9509 5.37229C31.9116 5.49301 31.9066 5.62231 31.9366 5.74569C31.9666 5.86907 32.0304 5.98165 32.1208 6.0708L32.9583 6.89163ZM33.8583 5.54996C33.9676 5.53472 34.0714 5.49295 34.1607 5.4283C34.2501 5.36366 34.3222 5.2781 34.3708 5.17913L34.7875 4.3458L35.2042 5.17913C35.2528 5.2781 35.3249 5.36366 35.4143 5.4283C35.5036 5.49295 35.6074 5.53472 35.7167 5.54996L36.6583 5.68746L35.9792 6.34996C35.8993 6.42689 35.8394 6.52209 35.8045 6.62734C35.7697 6.7326 35.761 6.84476 35.7792 6.95413L35.9417 7.89163L35.1083 7.44996C35.0107 7.39851 34.902 7.37162 34.7917 7.37162C34.6813 7.37162 34.5726 7.39851 34.475 7.44996C34.1861 7.57523 33.9075 7.7229 33.6417 7.89163L33.8042 6.95413C33.8223 6.84476 33.8136 6.7326 33.7788 6.62734C33.7439 6.52209 33.684 6.42689 33.6042 6.34996L32.9167 5.68746L33.8583 5.54996Z" fill="#b19777"/>
<path d="M12.9167 30.3833H27.0834C27.1939 30.3833 27.2999 30.3394 27.378 30.2613C27.4562 30.1832 27.5 30.0772 27.5 29.9667V26.3208C27.5 26.2103 27.4562 26.1043 27.378 26.0262C27.2999 25.9481 27.1939 25.9042 27.0834 25.9042H12.9167C12.8062 25.9042 12.7002 25.9481 12.6221 26.0262C12.5439 26.1043 12.5 26.2103 12.5 26.3208V29.9667C12.5 30.0772 12.5439 30.1832 12.6221 30.2613C12.7002 30.3394 12.8062 30.3833 12.9167 30.3833ZM13.3334 26.7375H26.6667V29.55H13.3334V26.7375ZM3.15422 29.4167H5.55005C5.66056 29.4167 5.76654 29.3728 5.84468 29.2946C5.92282 29.2165 5.96672 29.1105 5.96672 29V26.6042C5.96672 26.4937 5.92282 26.3877 5.84468 26.3095C5.76654 26.2314 5.66056 26.1875 5.55005 26.1875H3.15422C3.04371 26.1875 2.93773 26.2314 2.85959 26.3095C2.78145 26.3877 2.73755 26.4937 2.73755 26.6042V29C2.73755 29.1105 2.78145 29.2165 2.85959 29.2946C2.93773 29.3728 3.04371 29.4167 3.15422 29.4167ZM3.57088 27.0208H5.13338V28.5833H3.57088V27.0208ZM7.05422 29.4167H9.45005C9.56056 29.4167 9.66654 29.3728 9.74468 29.2946C9.82282 29.2165 9.86672 29.1105 9.86672 29V26.6042C9.86672 26.4937 9.82282 26.3877 9.74468 26.3095C9.66654 26.2314 9.56056 26.1875 9.45005 26.1875H7.05422C6.94371 26.1875 6.83773 26.2314 6.75959 26.3095C6.68145 26.3877 6.63755 26.4937 6.63755 26.6042V29C6.63755 29.1105 6.68145 29.2165 6.75959 29.2946C6.83773 29.3728 6.94371 29.4167 7.05422 29.4167ZM7.47088 27.0208H9.03338V28.5833H7.47088V27.0208ZM3.15422 25.4542H5.55005C5.66056 25.4542 5.76654 25.4103 5.84468 25.3321C5.92282 25.254 5.96672 25.148 5.96672 25.0375V22.6417C5.96672 22.5312 5.92282 22.4252 5.84468 22.347C5.76654 22.2689 5.66056 22.225 5.55005 22.225H3.15422C3.04371 22.225 2.93773 22.2689 2.85959 22.347C2.78145 22.4252 2.73755 22.5312 2.73755 22.6417V25.0375C2.73755 25.148 2.78145 25.254 2.85959 25.3321C2.93773 25.4103 3.04371 25.4542 3.15422 25.4542ZM3.57088 23.0583H5.13338V24.6208H3.57088V23.0583ZM7.05422 25.4542H9.45005C9.56056 25.4542 9.66654 25.4103 9.74468 25.3321C9.82282 25.254 9.86672 25.148 9.86672 25.0375V22.6417C9.86672 22.5312 9.82282 22.4252 9.74468 22.347C9.66654 22.2689 9.56056 22.225 9.45005 22.225H7.05422C6.94371 22.225 6.83773 22.2689 6.75959 22.347C6.68145 22.4252 6.63755 22.5312 6.63755 22.6417V25.0375C6.63755 25.148 6.68145 25.254 6.75959 25.3321C6.83773 25.4103 6.94371 25.4542 7.05422 25.4542ZM7.47088 23.0583H9.03338V24.6208H7.47088V23.0583ZM3.15422 21.4917H5.55005C5.66056 21.4917 5.76654 21.4478 5.84468 21.3696C5.92282 21.2915 5.96672 21.1855 5.96672 21.075V18.6792C5.96672 18.5687 5.92282 18.4627 5.84468 18.3845C5.76654 18.3064 5.66056 18.2625 5.55005 18.2625H3.15422C3.04371 18.2625 2.93773 18.3064 2.85959 18.3845C2.78145 18.4627 2.73755 18.5687 2.73755 18.6792V21.075C2.73755 21.1855 2.78145 21.2915 2.85959 21.3696C2.93773 21.4478 3.04371 21.4917 3.15422 21.4917ZM3.57088 19.0958H5.13338V20.6583H3.57088V19.0958ZM7.05422 21.4917H9.45005C9.56056 21.4917 9.66654 21.4478 9.74468 21.3696C9.82282 21.2915 9.86672 21.1855 9.86672 21.075V18.6792C9.86672 18.5687 9.82282 18.4627 9.74468 18.3845C9.66654 18.3064 9.56056 18.2625 9.45005 18.2625H7.05422C6.94371 18.2625 6.83773 18.3064 6.75959 18.3845C6.68145 18.4627 6.63755 18.5687 6.63755 18.6792V21.075C6.63755 21.1855 6.68145 21.2915 6.75959 21.3696C6.83773 21.4478 6.94371 21.4917 7.05422 21.4917ZM7.47088 19.0958H9.03338V20.6583H7.47088V19.0958ZM30.5501 29.4167H32.9459C33.0564 29.4167 33.1624 29.3728 33.2405 29.2946C33.3187 29.2165 33.3626 29.1105 33.3626 29V26.6042C33.3626 26.4937 33.3187 26.3877 33.2405 26.3095C33.1624 26.2314 33.0564 26.1875 32.9459 26.1875H30.5501C30.4395 26.1875 30.3336 26.2314 30.2554 26.3095C30.1773 26.3877 30.1334 26.4937 30.1334 26.6042V29C30.1334 29.1105 30.1773 29.2165 30.2554 29.2946C30.3336 29.3728 30.4395 29.4167 30.5501 29.4167ZM30.9667 27.0208H32.5292V28.5833H30.9667V27.0208ZM34.4501 29.4167H36.8459C36.9564 29.4167 37.0624 29.3728 37.1405 29.2946C37.2187 29.2165 37.2626 29.1105 37.2626 29V26.6042C37.2626 26.4937 37.2187 26.3877 37.1405 26.3095C37.0624 26.2314 36.9564 26.1875 36.8459 26.1875H34.4501C34.3395 26.1875 34.2336 26.2314 34.1554 26.3095C34.0773 26.3877 34.0334 26.4937 34.0334 26.6042V29C34.0334 29.1105 34.0773 29.2165 34.1554 29.2946C34.2336 29.3728 34.3395 29.4167 34.4501 29.4167ZM34.8667 27.0208H36.4292V28.5833H34.8667V27.0208ZM30.5501 25.4542H32.9459C33.0564 25.4542 33.1624 25.4103 33.2405 25.3321C33.3187 25.254 33.3626 25.148 33.3626 25.0375V22.6417C33.3626 22.5312 33.3187 22.4252 33.2405 22.347C33.1624 22.2689 33.0564 22.225 32.9459 22.225H30.5501C30.4395 22.225 30.3336 22.2689 30.2554 22.347C30.1773 22.4252 30.1334 22.5312 30.1334 22.6417V25.0375C30.1334 25.148 30.1773 25.254 30.2554 25.3321C30.3336 25.4103 30.4395 25.4542 30.5501 25.4542ZM30.9667 23.0583H32.5292V24.6208H30.9667V23.0583ZM34.4501 25.4542H36.8459C36.9564 25.4542 37.0624 25.4103 37.1405 25.3321C37.2187 25.254 37.2626 25.148 37.2626 25.0375V22.6417C37.2626 22.5312 37.2187 22.4252 37.1405 22.347C37.0624 22.2689 36.9564 22.225 36.8459 22.225H34.4501C34.3395 22.225 34.2336 22.2689 34.1554 22.347C34.0773 22.4252 34.0334 22.5312 34.0334 22.6417V25.0375C34.0334 25.148 34.0773 25.254 34.1554 25.3321C34.2336 25.4103 34.3395 25.4542 34.4501 25.4542ZM34.8667 23.0583H36.4292V24.6208H34.8667V23.0583ZM30.5501 21.4917H32.9459C33.0564 21.4917 33.1624 21.4478 33.2405 21.3696C33.3187 21.2915 33.3626 21.1855 33.3626 21.075V18.6792C33.3626 18.5687 33.3187 18.4627 33.2405 18.3845C33.1624 18.3064 33.0564 18.2625 32.9459 18.2625H30.5501C30.4395 18.2625 30.3336 18.3064 30.2554 18.3845C30.1773 18.4627 30.1334 18.5687 30.1334 18.6792V21.075C30.1334 21.1855 30.1773 21.2915 30.2554 21.3696C30.3336 21.4478 30.4395 21.4917 30.5501 21.4917ZM30.9667 19.0958H32.5292V20.6583H30.9667V19.0958ZM34.4501 21.4917H36.8459C36.9564 21.4917 37.0624 21.4478 37.1405 21.3696C37.2187 21.2915 37.2626 21.1855 37.2626 21.075V18.6792C37.2626 18.5687 37.2187 18.4627 37.1405 18.3845C37.0624 18.3064 36.9564 18.2625 36.8459 18.2625H34.4501C34.3395 18.2625 34.2336 18.3064 34.1554 18.3845C34.0773 18.4627 34.0334 18.5687 34.0334 18.6792V21.075C34.0334 21.1855 34.0773 21.2915 34.1554 21.3696C34.2336 21.4478 34.3395 21.4917 34.4501 21.4917ZM34.8667 19.0958H36.4292V20.6583H34.8667V19.0958ZM12.95 24.7917H15.3459C15.4564 24.7917 15.5624 24.7478 15.6405 24.6696C15.7187 24.5915 15.7626 24.4855 15.7626 24.375V21.9792C15.7626 21.8687 15.7187 21.7627 15.6405 21.6845C15.5624 21.6064 15.4564 21.5625 15.3459 21.5625H12.95C12.8395 21.5625 12.7336 21.6064 12.6554 21.6845C12.5773 21.7627 12.5334 21.8687 12.5334 21.9792V24.375C12.5334 24.4855 12.5773 24.5915 12.6554 24.6696C12.7336 24.7478 12.8395 24.7917 12.95 24.7917ZM13.3667 22.3958H14.9292V23.9583H13.3667V22.3958ZM16.85 24.7917H19.2459C19.3564 24.7917 19.4624 24.7478 19.5405 24.6696C19.6187 24.5915 19.6625 24.4855 19.6625 24.375V21.9792C19.6625 21.8687 19.6187 21.7627 19.5405 21.6845C19.4624 21.6064 19.3564 21.5625 19.2459 21.5625H16.85C16.7395 21.5625 16.6336 21.6064 16.5554 21.6845C16.4773 21.7627 16.4334 21.8687 16.4334 21.9792V24.375C16.4334 24.4855 16.4773 24.5915 16.5554 24.6696C16.6336 24.7478 16.7395 24.7917 16.85 24.7917ZM17.2667 22.3958H18.8292V23.9583H17.2667V22.3958ZM20.7542 24.7917H23.1501C23.2606 24.7917 23.3665 24.7478 23.4447 24.6696C23.5228 24.5915 23.5667 24.4855 23.5667 24.375V21.9792C23.5667 21.8687 23.5228 21.7627 23.4447 21.6845C23.3665 21.6064 23.2606 21.5625 23.1501 21.5625H20.7542C20.6437 21.5625 20.5377 21.6064 20.4596 21.6845C20.3814 21.7627 20.3376 21.8687 20.3376 21.9792V24.375C20.3376 24.4855 20.3814 24.5915 20.4596 24.6696C20.5377 24.7478 20.6437 24.7917 20.7542 24.7917ZM21.1709 22.3958H22.7334V23.9583H21.1709V22.3958ZM24.6542 24.7917H27.05C27.1606 24.7917 27.2665 24.7478 27.3447 24.6696C27.4228 24.5915 27.4667 24.4855 27.4667 24.375V21.9792C27.4667 21.8687 27.4228 21.7627 27.3447 21.6845C27.2665 21.6064 27.1606 21.5625 27.05 21.5625H24.6542C24.5437 21.5625 24.4377 21.6064 24.3596 21.6845C24.2814 21.7627 24.2375 21.8687 24.2375 21.9792V24.375C24.2375 24.4855 24.2814 24.5915 24.3596 24.6696C24.4377 24.7478 24.5437 24.7917 24.6542 24.7917ZM25.0709 22.3958H26.6334V23.9583H25.0709V22.3958ZM12.95 20.7292H15.3459C15.4564 20.7292 15.5624 20.6853 15.6405 20.6071C15.7187 20.529 15.7626 20.423 15.7626 20.3125V17.9167C15.7626 17.8062 15.7187 17.7002 15.6405 17.622C15.5624 17.5439 15.4564 17.5 15.3459 17.5H12.95C12.8395 17.5 12.7336 17.5439 12.6554 17.622C12.5773 17.7002 12.5334 17.8062 12.5334 17.9167V20.3125C12.5334 20.423 12.5773 20.529 12.6554 20.6071C12.7336 20.6853 12.8395 20.7292 12.95 20.7292ZM13.3667 18.3333H14.9292V19.8958H13.3667V18.3333ZM16.85 20.7292H19.2459C19.3564 20.7292 19.4624 20.6853 19.5405 20.6071C19.6187 20.529 19.6625 20.423 19.6625 20.3125V17.9167C19.6625 17.8062 19.6187 17.7002 19.5405 17.622C19.4624 17.5439 19.3564 17.5 19.2459 17.5H16.85C16.7395 17.5 16.6336 17.5439 16.5554 17.622C16.4773 17.7002 16.4334 17.8062 16.4334 17.9167V20.3125C16.4334 20.423 16.4773 20.529 16.5554 20.6071C16.6336 20.6853 16.7395 20.7292 16.85 20.7292ZM17.2667 18.3333H18.8292V19.8958H17.2667V18.3333ZM20.7542 20.7292H23.1501C23.2606 20.7292 23.3665 20.6853 23.4447 20.6071C23.5228 20.529 23.5667 20.423 23.5667 20.3125V17.9167C23.5667 17.8062 23.5228 17.7002 23.4447 17.622C23.3665 17.5439 23.2606 17.5 23.1501 17.5H20.7542C20.6437 17.5 20.5377 17.5439 20.4596 17.622C20.3814 17.7002 20.3376 17.8062 20.3376 17.9167V20.3125C20.3376 20.423 20.3814 20.529 20.4596 20.6071C20.5377 20.6853 20.6437 20.7292 20.7542 20.7292ZM21.1709 18.3333H22.7334V19.8958H21.1709V18.3333ZM24.6542 20.7292H27.05C27.1606 20.7292 27.2665 20.6853 27.3447 20.6071C27.4228 20.529 27.4667 20.423 27.4667 20.3125V17.9167C27.4667 17.8062 27.4228 17.7002 27.3447 17.622C27.2665 17.5439 27.1606 17.5 27.05 17.5H24.6542C24.5437 17.5 24.4377 17.5439 24.3596 17.622C24.2814 17.7002 24.2375 17.8062 24.2375 17.9167V20.3125C24.2375 20.423 24.2814 20.529 24.3596 20.6071C24.4377 20.6853 24.5437 20.7292 24.6542 20.7292ZM25.0709 18.3333H26.6334V19.8958H25.0709V18.3333ZM12.95 16.6667H15.3459C15.4564 16.6667 15.5624 16.6228 15.6405 16.5446C15.7187 16.4665 15.7626 16.3605 15.7626 16.25V13.8542C15.7626 13.7437 15.7187 13.6377 15.6405 13.5595C15.5624 13.4814 15.4564 13.4375 15.3459 13.4375H12.95C12.8395 13.4375 12.7336 13.4814 12.6554 13.5595C12.5773 13.6377 12.5334 13.7437 12.5334 13.8542V16.25C12.5334 16.3605 12.5773 16.4665 12.6554 16.5446C12.7336 16.6228 12.8395 16.6667 12.95 16.6667ZM13.3667 14.2708H14.9292V15.8333H13.3667V14.2708ZM16.85 16.6667H19.2459C19.3564 16.6667 19.4624 16.6228 19.5405 16.5446C19.6187 16.4665 19.6625 16.3605 19.6625 16.25V13.8542C19.6625 13.7437 19.6187 13.6377 19.5405 13.5595C19.4624 13.4814 19.3564 13.4375 19.2459 13.4375H16.85C16.7395 13.4375 16.6336 13.4814 16.5554 13.5595C16.4773 13.6377 16.4334 13.7437 16.4334 13.8542V16.25C16.4334 16.3605 16.4773 16.4665 16.5554 16.5446C16.6336 16.6228 16.7395 16.6667 16.85 16.6667ZM17.2667 14.2708H18.8292V15.8333H17.2667V14.2708ZM20.7542 16.6667H23.1501C23.2606 16.6667 23.3665 16.6228 23.4447 16.5446C23.5228 16.4665 23.5667 16.3605 23.5667 16.25V13.8542C23.5667 13.7437 23.5228 13.6377 23.4447 13.5595C23.3665 13.4814 23.2606 13.4375 23.1501 13.4375H20.7542C20.6437 13.4375 20.5377 13.4814 20.4596 13.5595C20.3814 13.6377 20.3376 13.7437 20.3376 13.8542V16.25C20.3376 16.3605 20.3814 16.4665 20.4596 16.5446C20.5377 16.6228 20.6437 16.6667 20.7542 16.6667ZM21.1709 14.2708H22.7334V15.8333H21.1709V14.2708ZM24.6542 16.6667H27.05C27.1606 16.6667 27.2665 16.6228 27.3447 16.5446C27.4228 16.4665 27.4667 16.3605 27.4667 16.25V13.8542C27.4667 13.7437 27.4228 13.6377 27.3447 13.5595C27.2665 13.4814 27.1606 13.4375 27.05 13.4375H24.6542C24.5437 13.4375 24.4377 13.4814 24.3596 13.5595C24.2814 13.6377 24.2375 13.7437 24.2375 13.8542V16.25C24.2375 16.3605 24.2814 16.4665 24.3596 16.5446C24.4377 16.6228 24.5437 16.6667 24.6542 16.6667ZM25.0709 14.2708H26.6334V15.8333H25.0709V14.2708ZM12.3875 35.1917H10.5292C10.4187 35.1917 10.3127 35.2356 10.2346 35.3137C10.1564 35.3918 10.1125 35.4978 10.1125 35.6083V37.4625C10.1125 37.573 10.1564 37.679 10.2346 37.7571C10.3127 37.8353 10.4187 37.8792 10.5292 37.8792H12.3875C12.4981 37.8792 12.604 37.8353 12.6822 37.7571C12.7603 37.679 12.8042 37.573 12.8042 37.4625V35.6083C12.8042 35.4978 12.7603 35.3918 12.6822 35.3137C12.604 35.2356 12.4981 35.1917 12.3875 35.1917ZM11.9709 37.0458H10.9459V36.025H11.9709V37.0458ZM8.22088 35.1917H6.36255C6.25204 35.1917 6.14606 35.2356 6.06792 35.3137C5.98978 35.3918 5.94588 35.4978 5.94588 35.6083V37.4625C5.94588 37.573 5.98978 37.679 6.06792 37.7571C6.14606 37.8353 6.25204 37.8792 6.36255 37.8792H8.22088C8.33139 37.8792 8.43737 37.8353 8.51551 37.7571C8.59365 37.679 8.63755 37.573 8.63755 37.4625V35.6083C8.63755 35.4978 8.59365 35.3918 8.51551 35.3137C8.43737 35.2356 8.33139 35.1917 8.22088 35.1917ZM7.80422 37.0458H6.77922V36.025H7.80422V37.0458ZM33.6376 35.1917H31.7792C31.6687 35.1917 31.5627 35.2356 31.4846 35.3137C31.4065 35.3918 31.3625 35.4978 31.3625 35.6083V37.4625C31.3625 37.573 31.4065 37.679 31.4846 37.7571C31.5627 37.8353 31.6687 37.8792 31.7792 37.8792H33.6376C33.7481 37.8792 33.854 37.8353 33.9322 37.7571C34.0103 37.679 34.0542 37.573 34.0542 37.4625V35.6083C34.0542 35.4978 34.0103 35.3918 33.9322 35.3137C33.854 35.2356 33.7481 35.1917 33.6376 35.1917ZM33.2209 37.0458H32.1959V36.025H33.2209V37.0458ZM29.4709 35.1917H27.6125C27.502 35.1917 27.3961 35.2356 27.3179 35.3137C27.2398 35.3918 27.1959 35.4978 27.1959 35.6083V37.4625C27.1959 37.573 27.2398 37.679 27.3179 37.7571C27.3961 37.8353 27.502 37.8792 27.6125 37.8792H29.4709C29.5814 37.8792 29.6874 37.8353 29.7655 37.7571C29.8437 37.679 29.8876 37.573 29.8876 37.4625V35.6083C29.8876 35.4978 29.8437 35.3918 29.7655 35.3137C29.6874 35.2356 29.5814 35.1917 29.4709 35.1917ZM29.0542 37.0458H28.0292V36.025H29.0542V37.0458Z" fill="#b19777"/>
</g>
<defs>
<clipPath id="clip0_1319_8">
<rect width="40" height="40" fill="white"/>
</clipPath>
</defs>
</svg>
