<svg width="60" height="20" viewBox="0 0 60 20" fill="none" xmlns="http://www.w3.org/2000/svg">
<path fill-rule="evenodd" clip-rule="evenodd" d="M1.69513 0.130017C1.21245 0.258726 0.704321 0.605276 0.43897 0.986822C-0.0142911 1.63861 5.08025e-05 1.34354 5.08025e-05 10.0333V18.1864L0.261514 18.7137C0.696641 19.5915 1.40443 19.9727 2.59879 19.9727C3.39965 19.9727 4.14703 19.7309 4.51157 19.3541C4.64544 19.2157 4.85084 18.8963 4.96807 18.6444C5.17245 18.205 5.18299 18.0686 5.2274 15.3007L5.27376 12.4151L6.29149 12.4176C8.09038 12.4223 8.33463 12.5952 9.45793 14.6595C11.3295 18.099 11.6702 18.6646 12.1626 19.1502C12.5508 19.5331 12.801 19.6944 13.1925 19.8143C13.7851 19.9959 14.9445 20.0241 15.4142 19.8685C16.46 19.5217 16.9234 18.5376 16.5771 17.3983C16.4254 16.8994 14.8547 14.0579 14.3654 13.3973C13.98 12.877 13.3218 12.3477 12.8374 12.1687C12.6719 12.1076 12.5367 12.0348 12.5367 12.0069C12.5367 11.9789 12.783 11.8615 13.0842 11.7459C14.7265 11.1154 15.9323 9.77447 16.4369 8.0179C16.6041 7.43564 16.6468 7.05913 16.6448 6.18574C16.6403 4.30815 16.1484 3.02848 14.9889 1.87872C13.9734 0.871765 12.6863 0.301232 10.9662 0.0958474C9.80072 -0.0433047 2.24082 -0.0154559 1.69513 0.130017ZM22.0516 0.2088C21.7178 0.487837 21.3916 1.03446 21.0003 1.97051C20.6216 2.87614 20.057 4.61788 19.9726 5.1405C19.9045 5.56189 19.974 5.5826 20.5645 5.31721C21.7285 4.79404 22.9854 4.86412 24.5875 5.54147C24.8339 5.64563 24.7979 5.28899 24.432 4.00328C23.8227 1.86232 23.2945 0.651815 22.784 0.226572C22.4527 -0.0494422 22.3631 -0.0516408 22.0516 0.2088ZM28.5927 0.136521C28.022 0.288224 27.4927 0.8157 27.3361 1.38889C27.1925 1.91453 27.2725 2.83904 27.4993 3.27363C27.5988 3.46454 27.8571 3.7444 28.0732 3.89555L28.4659 4.17037L32.5513 4.19694C34.7983 4.2116 36.6703 4.25694 36.7116 4.2978C36.7528 4.33856 36.3776 4.88317 35.8778 5.50785C34.5442 7.17474 31.4727 10.9931 30.0268 12.7815C28.1449 15.1092 27.9133 15.4249 27.5971 16.094C27.3532 16.6101 27.3067 16.8182 27.305 17.4013C27.3027 18.2276 27.5019 18.6826 28.0809 19.1733C28.7622 19.7507 28.6678 19.7437 35.7132 19.7437C42.0718 19.7437 42.0986 19.7429 42.4672 19.5464C43.2328 19.1385 43.5628 18.5605 43.5574 17.6367C43.5533 16.9068 43.4724 16.6541 43.1039 16.2205C42.5554 15.5752 42.5376 15.5728 37.8223 15.5217C35.4958 15.4964 33.5825 15.466 33.5705 15.4541C33.5586 15.4422 33.9807 14.8979 34.5085 14.2444C43.4433 3.18358 43.0224 3.77234 43.0224 2.3363C43.0224 1.57632 42.9991 1.46557 42.7662 1.117C42.4257 0.60766 41.8684 0.220801 41.3015 0.100428C40.5752 -0.0538393 29.1872 -0.0214105 28.5927 0.136521ZM47.4793 0.132033C46.7933 0.316805 46.3044 0.707694 45.9843 1.3276L45.7055 1.86727V9.88935V17.9115L45.9669 18.4389C46.2523 19.0145 46.6059 19.332 47.2385 19.5806C47.613 19.7278 48.1117 19.7418 53.0147 19.7428C55.9661 19.7432 58.5358 19.7112 58.7252 19.6713C59.5166 19.505 60 18.7853 60 17.7732C60 17.096 59.8729 16.7247 59.5034 16.3226C59.0249 15.8016 59.0812 15.8083 54.7263 15.7587L50.7016 15.7129L50.6754 13.9266C50.6609 12.9441 50.6716 12.0493 50.6993 11.9381L50.7494 11.7359L54.4263 11.709C58.0357 11.6827 58.1104 11.6784 58.4926 11.4763C59.0877 11.1613 59.3937 10.5783 59.3926 9.76146C59.3916 8.98518 59.1898 8.52348 58.6731 8.11537L58.3177 7.83468L54.5879 7.80885C51.5977 7.78805 50.8376 7.75846 50.7546 7.65953C50.6844 7.57571 50.6593 6.98154 50.6764 5.8074L50.7016 4.07877L54.68 4.02912C58.8584 3.97699 58.9756 3.96508 59.4307 3.54589C59.8307 3.17753 60 2.71912 60 2.0044C60 1.12094 59.7697 0.641004 59.1816 0.298666L58.751 0.0480279L53.3385 0.0298897C49.1115 0.0156905 47.8282 0.0380433 47.4793 0.132033ZM10.1311 4.16552C10.7681 4.36907 11.451 5.00987 11.6005 5.54449C11.9019 6.62244 11.5807 7.73116 10.8249 8.22163C10.1898 8.63396 9.68424 8.70495 7.3849 8.70495H5.2275V6.31473V3.9245L7.42487 3.96371C9.19684 3.99531 9.72078 4.03443 10.1311 4.16552ZM21.8813 6.517C21.6014 6.5497 21.2625 6.61978 21.1283 6.67273C20.7079 6.83836 20.2479 7.3105 20.0194 7.81114L19.7996 8.29272V13.2395V18.1864L20.0127 18.6444C20.471 19.6294 21.1085 20 22.3439 20C23.5793 20 24.2168 19.6294 24.6751 18.6444C24.8872 18.1885 24.8884 18.1643 24.9175 13.606C24.9474 8.93342 24.9116 8.28219 24.5909 7.65266C24.1455 6.77844 23.1634 6.36685 21.8813 6.517Z" fill="#000000"/>
</svg>
