<svg width="305" height="106" viewBox="0 0 305 106" fill="none" xmlns="http://www.w3.org/2000/svg">
<path fill-rule="evenodd" clip-rule="evenodd" d="M8.61691 0.68909C6.16329 1.37125 3.5803 3.20796 2.23143 5.23016C-0.0726465 8.68463 0.000258247 7.12076 0.000258247 53.1765V96.3879L1.32936 99.1826C3.54126 103.835 7.13919 105.855 13.2105 105.855C17.2816 105.855 21.0807 104.574 22.9338 102.577C23.6143 101.843 24.6584 100.15 25.2544 98.8153C26.2933 96.4865 26.3469 95.7636 26.5726 81.0937L26.8083 65.8L31.9817 65.8133C41.1261 65.8382 42.3677 66.7546 48.0778 77.6954C57.5916 95.9247 59.3235 98.9224 61.8266 101.496C63.7999 103.525 65.0718 104.38 67.0619 105.016C70.0743 105.978 75.9679 106.128 78.3555 105.303C83.6717 103.465 86.0273 98.2493 84.2669 92.211C83.4958 89.5668 75.5114 74.5069 73.0241 71.0057C71.065 68.2481 67.7192 65.4428 65.2568 64.4941C64.4155 64.1703 63.7282 63.7844 63.7282 63.6366C63.7282 63.4882 64.9803 62.866 66.5114 62.2533C74.8597 58.9116 80.9892 51.8047 83.5542 42.4949C84.4042 39.4089 84.6212 37.4134 84.6111 32.7844C84.5882 22.8332 82.0877 16.0509 76.1936 9.95722C71.0315 4.62035 64.4887 1.59653 55.7449 0.507991C49.8203 -0.229515 11.3908 -0.0819161 8.61691 0.68909ZM112.096 1.10664C110.399 2.58554 108.741 5.48264 106.752 10.4437C104.826 15.2435 101.956 24.4748 101.527 27.2446C101.181 29.478 101.535 29.5878 104.536 28.1812C110.453 25.4084 116.842 25.7798 124.986 29.3698C126.239 29.9218 126.056 28.0316 124.196 21.2174C121.099 9.8703 118.414 3.45462 115.819 1.20083C114.135 -0.262043 113.679 -0.273696 112.096 1.10664ZM145.346 0.723561C142.445 1.52759 139.755 4.32321 138.959 7.36112C138.229 10.147 138.635 15.0469 139.788 17.3502C140.294 18.3621 141.607 19.8453 142.705 20.6464L144.702 22.103L165.469 22.2438C176.891 22.3215 186.407 22.5618 186.617 22.7783C186.827 22.9944 184.919 25.8808 182.379 29.1916C175.6 38.0261 159.986 58.2634 152.636 67.7419C143.07 80.0788 141.893 81.752 140.285 85.2982C139.045 88.0335 138.809 89.1365 138.8 92.2269C138.789 96.6063 139.801 99.0178 142.745 101.618C146.208 104.679 145.728 104.642 181.542 104.642C213.865 104.642 214.001 104.637 215.875 103.596C219.767 101.434 221.444 98.3706 221.417 93.4745C221.396 89.606 220.985 88.2667 219.112 85.9687C216.323 82.5486 216.233 82.5358 192.263 82.265C180.437 82.1309 170.711 81.9698 170.65 81.9067C170.59 81.8437 172.735 78.9589 175.418 75.4953C220.837 16.873 218.697 19.9934 218.697 12.3824C218.697 8.35449 218.579 7.76752 217.395 5.9201C215.664 3.2206 212.831 1.17025 209.949 0.532269C206.257 -0.285348 148.368 -0.113476 145.346 0.723561ZM241.353 0.699775C237.866 1.67907 235.381 3.75078 233.754 7.03628L232.336 9.89653V52.4136V94.931L233.665 97.7262C235.116 100.777 236.913 102.46 240.129 103.777C242.033 104.557 244.568 104.632 269.491 104.637C284.494 104.639 297.557 104.469 298.52 104.258C302.543 103.377 305 99.5621 305 94.198C305 90.6088 304.354 88.6409 302.476 86.5098C300.043 83.7485 300.329 83.784 278.192 83.5211L257.733 83.2784L257.6 73.811C257.526 68.6037 257.581 63.8613 257.721 63.2719L257.976 62.2003L276.667 62.0577C295.015 61.9183 295.395 61.8955 297.337 60.8244C300.362 59.1549 301.918 56.065 301.912 51.7357C301.907 47.6215 300.882 45.1744 298.255 43.0115L296.448 41.5238L277.488 41.3869C262.288 41.2767 258.424 41.1198 258.003 40.5955C257.646 40.1513 257.518 37.0022 257.605 30.7792L257.733 21.6175L277.957 21.3543C299.197 21.078 299.793 21.0149 302.106 18.7932C304.139 16.8409 305 14.4113 305 10.6233C305 5.94098 303.829 3.39732 300.84 1.58293L298.651 0.254548L271.137 0.158416C249.65 0.0831598 243.127 0.20163 241.353 0.699775ZM51.4998 22.0773C54.7378 23.1561 58.2093 26.5523 58.9692 29.3858C60.5013 35.0989 58.8686 40.9751 55.0266 43.5746C51.7981 45.76 49.2282 46.1362 37.5399 46.1362H26.5731V33.4681V20.7999L37.7431 21.0077C46.7506 21.1751 49.414 21.3825 51.4998 22.0773ZM111.23 34.5401C109.807 34.7134 108.084 35.0848 107.402 35.3655C105.265 36.2433 102.927 38.7457 101.765 41.399L100.648 43.9514V70.1694V96.3879L101.731 98.8153C104.061 104.036 107.302 106 113.581 106C119.861 106 123.102 104.036 125.432 98.8153C126.51 96.399 126.516 96.2708 126.664 72.1118C126.816 47.3471 126.634 43.8956 125.004 40.5591C122.74 35.9257 117.747 33.7443 111.23 34.5401Z" fill="#232645"/>
</svg>
